<svg xmlns="http://www.w3.org/2000/svg" width="242" height="286" fill="none"><path fill="#5c396a" d="M97.484 18.443C43.645 28.629 8.25 80.577 18.424 134.472q.68-.789 1.366-1.525a48 48 0 0 1 2.856-2.821c15.17-13.748 32.316-10.522 41.735-5.796a31 31 0 0 1 3.215 1.855 46 46 0 0 1 1.537-1.994c14.554-17.835 34.451-13.761 44.687-8.47.823.426 1.583.859 2.273 1.289a44 44 0 0 1 1.619-2.177c13.773-17.36 33.533-14.13 44.054-9.321.961.439 1.844.891 2.639 1.342a46 46 0 0 1 1.571-1.868c13.156-14.82 30.009-13.99 40.844-10.322 1.347.456 2.601.956 3.743 1.475 1.041.473 1.988.961 2.829 1.447-10.175-53.895-62.069-89.329-115.908-79.143"/><path fill="#5c396a" d="M210.563 96.139a40 40 0 0 0-3.743-1.475l-65.219 117.513 24.375-107.191a46 46 0 0 0-1.571 1.868 34 34 0 0 0-2.639-1.342l-25.031 110.081-19.023-100.76a44 44 0 0 0-1.619 2.177c-.69-.43-1.45-.863-2.273-1.289l19.027 100.781-63.714-92.311a46 46 0 0 0-1.537 1.994 31 31 0 0 0-3.215-1.855l62.593 90.686-104.328-84.89q-1.44 1.305-2.856 2.821l111.16 90.45-25.814 4.884 4.259 22.557 4.259 22.558 61.724-11.678-4.259-22.557-4.259-22.558-25.868 4.894z"/></svg>