<svg xmlns="http://www.w3.org/2000/svg" width="167" height="192" fill="none"><path fill="#5c396a" d="M104.765 16.643C70.393 7.451 35.07 27.836 25.869 62.173q.619-.27 1.229-.506a31 31 0 0 1 2.464-.845c12.744-3.763 21.87 2.943 26.054 8.352.535.692.99 1.363 1.36 1.987q.735-.393 1.46-.732c13.533-6.323 24.03 1.652 28.533 7.62.362.48.685.947.968 1.392a29 29 0 0 1 1.56-.816c12.941-6.266 23.597 1.178 28.402 6.945.439.527.828 1.04 1.167 1.526q.727-.35 1.444-.649c11.867-4.956 21.496.269 26.805 5.458.66.645 1.254 1.29 1.776 1.914.476.569.893 1.12 1.249 1.64 9.201-34.336-11.204-69.624-45.575-78.816"/><path fill="#5c396a" d="M149.091 93.82a26 26 0 0 0-1.776-1.915l-71.212 50.289 44.407-55.747q-.717.3-1.444.65c-.339-.487-.728-1-1.167-1.527l-45.604 57.25 17.201-64.195q-.774.375-1.559.816a21 21 0 0 0-.968-1.391l-17.205 64.208-11.328-71.829q-.725.339-1.46.733a20 20 0 0 0-1.36-1.988l11.129 70.565-37.183-78.917a31 31 0 0 0-2.464.845l39.617 84.084-16.48-4.407-3.851 14.372-3.851 14.372 39.405 10.538 3.851-14.372 3.851-14.372-16.514-4.416z"/></svg>