<svg xmlns="http://www.w3.org/2000/svg" width="95" height="122" fill="none"><g fill="#b33939" clip-path="url(#a)"><path d="M42.62 107.254 9.187 26.788c-.1-.24.184-.603.647-.803s.912-.162 1.016.086l33.432 80.466c.1.24-.183.603-.646.803-.464.2-.913.162-1.016-.086"/><path d="M48.365 109.003c.684 1.645 1.958 14.146 1.958 14.146s-8.034-9.644-8.717-11.289c-.684-1.645 1.393-5.542 1.067-7.123 1.062 1.56 5.009 2.621 5.692 4.266M17.604 38.07c-.09-.317-.324-.777-.324-.777l-2.019-4.86s-1.568 2.968-.76 4.912L13.29 34.43c-.694-.572-3.184-.92-3.184-.92l2.424 5.833.323.777c.323.778 3.668 2.087 3.668 2.087s1.51-2.638 1.083-4.136M5.01 27.002c1.95 1.447 5.799 2.162 5.799 2.162s2.913-3.409 3.343-6.104l-5.49-10.854c.846 2.034-.22 5.758-.859 7.366-.946-.391-2.91-3.075-3.775-4.368l-.126 2.053L.83 14.584zM53.418 96.254 19.366 15.788c-.102-.24.186-.603.658-.803s.93-.162 1.035.086L55.11 95.537c.101.24-.187.603-.659.803s-.93.161-1.034-.086"/><path d="M59.27 98.003c.695 1.645 1.993 14.146 1.993 14.146s-8.182-9.644-8.879-11.289 1.42-5.542 1.087-7.123c1.082 1.56 5.102 2.621 5.798 4.266M27.938 27.07c-.092-.317-.33-.777-.33-.777l-2.056-4.86s-1.597 2.968-.774 4.912l-1.234-2.916c-.707-.572-3.242-.92-3.242-.92l2.468 5.833.33.777c.328.778 3.735 2.087 3.735 2.087s1.537-2.638 1.103-4.136M15.112 16.002c1.985 1.447 5.905 2.162 5.905 2.162s2.968-3.409 3.406-6.104L18.83 1.206c.861 2.034-.225 5.758-.875 7.366-.964-.391-2.965-3.075-3.845-4.368l-.129 2.053-3.127-2.673zM72.418 107.254 38.366 26.788c-.102-.24.186-.603.658-.803s.93-.162 1.035.086l34.052 80.466c.101.24-.187.603-.659.803s-.93.162-1.034-.086"/><path d="M78.27 109.003c.696 1.645 1.993 14.146 1.993 14.146s-8.183-9.644-8.879-11.289 1.42-5.542 1.087-7.123c1.082 1.56 5.102 2.621 5.798 4.266M46.938 38.07c-.092-.317-.33-.777-.33-.777l-2.056-4.86s-1.597 2.968-.774 4.912l-1.234-2.916c-.707-.572-3.242-.92-3.242-.92l2.468 5.833.33.777c.328.778 3.735 2.087 3.735 2.087s1.537-2.638 1.103-4.136M34.112 27.002c1.985 1.447 5.905 2.162 5.905 2.162s2.967-3.409 3.405-6.104l-5.59-10.854c.86 2.034-.226 5.758-.876 7.366-.964-.391-2.965-3.075-3.845-4.368l-.129 2.053-3.127-2.673zM83.418 96.254 49.366 15.788c-.102-.24.186-.603.658-.803s.93-.162 1.035.086L85.11 95.537c.101.24-.187.603-.659.803s-.93.161-1.034-.086"/><path d="M89.27 98.003c.696 1.645 1.993 14.146 1.993 14.146s-8.183-9.644-8.879-11.289 1.42-5.542 1.087-7.123c1.082 1.56 5.102 2.621 5.798 4.266M57.938 27.07c-.092-.317-.33-.777-.33-.777l-2.056-4.86s-1.597 2.968-.774 4.912l-1.234-2.916c-.707-.572-3.242-.92-3.242-.92l2.468 5.833.33.777c.328.778 3.735 2.087 3.735 2.087s1.537-2.638 1.103-4.136M45.112 16.002c1.985 1.447 5.905 2.162 5.905 2.162s2.967-3.409 3.405-6.104l-5.59-10.854c.86 2.034-.226 5.758-.876 7.366-.964-.391-2.965-3.075-3.845-4.368l-.129 2.053-3.127-2.673z"/></g><defs><clipPath id="a"><path fill="#fff" d="M0 0h95v122H0z"/></clipPath></defs></svg>