<svg xmlns="http://www.w3.org/2000/svg" width="174" height="978" fill="none"><g fill="#5c396a" clip-path="url(#a)"><path d="M95.414 144.672v714.322c0 2.135-3.357 3.947-7.585 3.947s-7.584-1.747-7.584-3.947V144.672c0-2.135 3.357-3.946 7.584-3.946 4.228 0 7.585 1.746 7.585 3.946"/><path d="M56.576 112.846C56.576 98.242 86.915 0 86.915 0s31.165 98.684 31.165 113.288-28.602 37.195-31.165 50.161c-3.204-15.192-30.339-35.999-30.339-50.603M66.557 746.732c-.322 2.684 0 6.903 0 6.903v43.147s21.678-17.258 21.678-34.517v25.888c3.53 6.559 21.679 17.259 21.679 17.259v-58.68c0-6.904-21.679-27.614-21.679-27.614s-20.164 14.954-21.678 27.614M128.431 870.944c-10.436-17.22-37.923-35.1-37.923-35.1S56.996 852.048 45 870.944l7.585 99.533c0-18.055 20.225-42.631 30.338-52.661 6.068 6.018 12.641 32.6 15.17 45.138l7.584-15.046L120.846 978z"/></g><defs><clipPath id="a"><path fill="#fff" d="M0 0h174v978H0z"/></clipPath></defs></svg>