<svg xmlns="http://www.w3.org/2000/svg" width="395" height="791" fill="none"><path fill="#478561" d="M63.55 7.035c3.116 1.628 11.766 5.32 21.443 7.057 12.097 2.171 25.293 3.8 34.09 4.885 8.797 1.086 9.347 2.172 10.997 1.086 1.649-1.086.55-4.343 8.247-2.171 7.698 2.17 18.145 7.056 21.994 8.142 3.848 1.086 10.996-1.086 14.845 1.086 8.443 9.235 28.189 27.707 39.627 27.707 2.502 0 3.849-2.714 3.849-4.886 0-1.942-2.199-2.171-3.849-2.171.733-.543 2.09-1.954 1.65-3.257s-3.116-.543-4.399 0c.733-.724 1.65-2.497-.55-3.8-2.199-1.303-5.315-1.267-6.598-1.086 3.299-1.085 11.547-9.228 14.846-10.314 3.299-1.085 12.096-6.514 15.945-8.142 3.849-1.629 7.148-1.629 9.347-2.172 1.76-.434 20.894-12.847 30.241-18.999-10.63 11.943-32.11 36.805-32.99 40.713-1.1 4.886 0 12.903 2.919 13.125 12.452.946 29.608-17.418 36.63-26.718 3.849-2.172 10.997 0 14.845-1.086s14.296-5.971 21.994-8.142c7.697-2.172 6.598 1.085 8.247 2.17 1.65 1.087 2.2 0 10.997-1.085s21.993-2.714 34.09-4.885c9.677-1.738 18.327-5.429 21.443-7.057-1.646 2.89-5.922 9.096-9.875 10.847.599-.239 3.368.532 10.425-1.076-2.932 3.257-10.557 10.422-17.595 13.028 1.283 0 5.059-.326 9.897-1.628-3.849 3.8-16.055 11.182-34.089 10.313 4.215 1.448 14.075 4.452 19.794 4.886-3.483 4.705-12.317 15.091-19.794 19-3.849 1.628-1.65 5.428-3.299 7.6-1.65 2.17-3.849-.544-6.598 2.17-2.75 2.715-2.2 3.8-10.997 3.8s-8.248 2.172-10.447 3.8c-2.199 1.629-3.299.543-4.399 1.086-1.099.543-.549 11.4-7.697 14.657s-7.698 0-10.447 1.085c-2.749 1.086 1.649 5.429-2.199 7.6-3.849 2.171-12.647 1.086-16.495 1.086s-4.949-2.172-8.248-1.629-2.199 2.714-5.498 1.629c-3.299-1.086-4.399-3.257-8.248-1.086s-4.398 0-6.598 0c-2.199 0-2.749 3.257-4.948 2.171-2.2-1.085-1.65 0-2.749 2.715s-4.949 7.057-4.949 10.856c0 3.8 7.148 24.428 10.997 29.857s12.646 20.085 16.495 22.799 10.447 10.314 19.244 14.114c7.038 3.04 14.296 5.247 17.045 5.971-4.765 1.448-15.945 4.126-22.543 3.257.733 2.352.989 7.057-3.849 7.057-4.839 0-11.18-3.981-13.746-5.971-.917 1.447-4.069 3.8-9.347 1.628-6.598-2.714-11.547-13.028-14.296-15.199-2.749-2.172-9.897-13.571-9.897-19 0 5.429-7.148 16.828-9.897 19-2.749 2.171-7.698 12.485-14.296 15.199-5.278 2.172-8.43-.181-9.347-1.628-2.566 1.99-8.907 5.971-13.746 5.971-4.838 0-4.582-4.705-3.849-7.057-6.598.869-17.778-1.809-22.543-3.257 2.749-.724 10.007-2.931 17.045-5.971 8.797-3.8 15.395-11.4 19.244-14.114s12.646-17.371 16.495-22.799 10.997-26.057 10.997-29.857c0-3.799-3.849-8.142-4.948-10.856s-.55-3.8-2.75-2.715c-2.199 1.086-2.749-2.171-4.948-2.171s-2.749 2.171-6.598 0-4.949 0-8.248 1.086c-3.299 1.085-2.199-1.086-5.498-1.629s-4.399 1.629-8.248 1.629-12.646 1.085-16.495-1.086c-3.848-2.171.55-6.514-2.199-7.6s-3.299 2.172-10.447-1.085-6.598-14.114-7.697-14.657-2.2.543-4.399-1.086c-2.199-1.628-1.65-3.8-10.447-3.8s-8.247-1.085-10.997-3.8-4.948 0-6.598-2.17c-1.649-2.172.55-5.972-3.299-7.6-7.477-3.909-16.311-14.295-19.794-19 5.719-.434 15.579-3.438 19.794-4.886-18.034.869-30.24-6.514-34.09-10.313 4.84 1.302 8.615 1.628 9.898 1.628C73.557 27.228 65.932 20.063 63 16.806c7.057 1.608 9.826.837 10.425 1.076-3.953-1.75-8.229-7.958-9.875-10.847"/><g clip-path="url(#a)"><path fill="#478561" d="m134.224 417.633-25.672 30.31c10.313-8.417 31.291-25.505 32.705-26.523 1.767-1.274 3.288-1.029 9.383-3.006 6.095-1.978 7.303-3.654 9.394-5.967s4.743-4.223 8.175-1.33c4.851 8.579 17.774 21.268 26.34 22.34 6.852.857 17.862-.441 22.51-1.198 6.384 5.865 9.846 21.079 10.862 27.324s5.129 15.615-2.704 34.955c-3.285 8.109-14.486 17.149-44.386 30.575 30.295-4.93 41.541-13.677 46.496-17.606.961-.156 2.404-.391 3.21-1.508.644-.894 3.25-4.295 3.48-8.948.372.268 1.648.422 3.768-1.107s3.869-12.627 4.478-17.986c.976 2.964 3.261 9.726 4.593 13.059s2.679 4.33 3.185 4.412c.109-.346.861 1.044 3.006 9.373s5.983 12.503 7.634 13.549c5.819 18.776 14.146 27.283 17.582 29.189-9.792-14.678-16.747-57.429-19.013-71.36s-14.493-40.538-19.109-47.676c-3.693-5.711-12.443-12.768-16.356-15.583 1.118.805 2.561.57 3.444-.067.884-.637 1.846-.793 3.769-1.106s3.925-.146 5.29-.861c1.364-.715 2.65-1.91 5.055-2.302 2.404-.391 2.17-1.832 3.131-1.988.962-.157 3.21-1.509 4.899-3.263s3.132-1.989 4.899-3.262c1.767-1.274 2.092-2.313 2.663-4.871s5.133-1.822 5.704-4.38 3.3-3.988 3.624-5.027 3.378-3.508 3.144-4.949c-.234-1.442 2.014-2.793 3.3-3.989s.012-2.96 3.222-4.469c2.567-1.206 4.179-3.638 4.664-4.703 7.631-1.636 9.391-4.98 9.317-6.447 7.246-1.573 6.718-4.216 5.548-5.34 2.482.089 7.449-.325 7.459-2.693s-5.266-5.06-7.904-6.11c6.992.506 21.014.525 21.158-3.443.18-4.96-18.796-6.31-18.952-7.27 6.329-.537 15.075-4.426 19.493-7.61 3.534-2.547 8.317-3.49 10.266-3.643-3.193-2.636-16.658-.248-22.991 1.276 19.388-9.466 26.72-18.811 27.962-22.3-6.684 5.032-18.83 8.652-24.067 9.833 22.287-13.488 27.691-28.009 27.607-33.584-11.392 12.504-29.539 22.722-37.189 26.267 12.224-12.244 16.437-24.369 17.016-28.901-4.117 8.066-28.064 27.741-28.689 23.898s12.641-16.356 11.691-19.16c-.76-2.243-12.707-.233-18.586 1.052 1.052-2.636 15.009-7.866 13.254-9.553-1.404-1.349-7.101-.159-9.773.605-.313-1.922 8.108-4.771 8.757-6.849.52-1.662-6.992-.506-10.813.28 1.823-1.94 5.327-6.093 4.754-7.183-.715-1.363-2.236-1.609-7.213 1.173s-37.591 26.826-40.735 31.775-9.887 9.005-11.745 12.759-9.196 16.288-11.131 19.562c-1.936 3.273-12.118 25.639-13.092 28.755-.973 3.117-3.348 15.83-5.529 20.623s-5.079 8.222-7.327 9.574-3.457 3.028-4.262 4.145c-.806 1.117-4.899 3.263-8.421 2.85-2.818-.331-5.021.488-5.771.939-1.763.287-5.669-.261-7.189-4.747-1.519-4.487.116-15.469 1.124-20.399-.895 3.597-9.028 14.289-11.444 17.64s-5.807 9.82-6.858 12.457c-1.052 2.636-5.717 7.34-8.211 10.211-1.996 2.297-3.42 7.295-3.883 9.507"/></g><path fill="#478561" d="M24.828 576.366c2.79-8.319 24.424-29.656 34.891-39.284 4.188-3.236 2.52 4.044 1.163 8.088 4.653-.463 3.102 5.584 1.745 8.665 4.652 0 .775 8.473-1.745 12.71 5.583 0 1.551 6.547-1.163 9.821 4.653 2.311 3.877 7.896 2.908 10.399 5.583 3.235 2.326 9.821 0 12.71 6.513 3.235 2.714 9.821 0 12.709 6.048.463 6.785 5.97 6.397 8.666 5.117-.462 6.01 4.429 5.815 6.933 6.048 0 5.622 5.007 4.653 7.51 5.117.462 4.07 3.659 2.907 5.199 5.118 0 2.908 5.778 1.163 8.666 4.071-5.199 25.588-17.909 41.289-23.108s23.261-8.666 26.751-11.555c3.489-2.888 3.489-7.51 12.793-12.132 7.444-3.697 23.649-15.791 30.822-21.375-1.163 13.865-7.56 23.108-13.376 30.041s-17.446 9.243-17.446 9.243 2.668.593 1.505 2.904-10.994 7.716-10.994 7.716 2.907 1.984 0 4.873c-2.908 2.888-14.353 11.082-14.353 11.082s3.649 2.038 1.323 4.349c-2.326 2.31-9.465 7.783-9.465 10.672 0 2.888-12.794 13.865-15.12 16.754-2.326 2.888-.581 2.888-1.744 6.354s-13.376 13.866-8.723 15.021 13.375 6.355 20.353 15.021c6.979 8.665 8.142 11.554 13.957 22.53 4.652 8.782 24.812 36.782 34.311 49.684-4.071-3.466-16.283-12.132-19.773-12.71s-4.652-3.466-8.141-6.932-13.375-15.599-21.517-15.021-10.467 1.733-16.283 5.777c-4.652 3.235-12.018 15.599-15.12 21.376 2.326-12.132 3.49-43.329 3.49-50.262s-6.397-12.709-10.468-14.442-16.283 5.777-27.332 1.733c-11.05-4.044-13.375-2.889-15.12-2.889s-3.49 4.044-1.163 8.088 1.745 13.865 2.908 16.754c1.86 4.622 19.384 30.426 27.913 42.751l-5.815-3.467 1.163 3.467c-6.397-10.399-32.566-29.464-41.289-33.508s-15.701-9.243-19.19-16.753c-3.49-7.511-1.164-10.977 0-17.332.93-5.084 3.489-18.294 4.652-24.264 1.744 9.821 10.468 6.933 10.468 4.622s5.233-8.088 6.978-10.399c1.744-2.311 3.489-6.933 2.907-9.821s-6.978-6.355-9.885-9.244-18.61-14.442-20.936-19.642.582-16.754 2.326-23.108c1.745-6.355 9.305-21.954 11.631-26.575 2.326-4.622 3.49-8.666 6.979-19.065"/><defs><clipPath id="a"><path fill="#fff" d="M100 253h233v297H100z"/></clipPath></defs></svg>