<svg xmlns="http://www.w3.org/2000/svg" width="642" height="840" fill="none"><g clip-path="url(#a)"><path fill="#478561" d="M239.669 8.594c3.794 1.99 14.326 6.5 26.108 8.621 14.728 2.653 30.794 4.643 41.505 5.969s11.381 2.653 13.389 1.326.67-5.305 10.042-2.652 22.091 8.62 26.777 9.947 13.389-1.326 18.075 1.327c10.279 11.283 34.32 33.849 48.247 33.849 3.046 0 4.686-3.316 4.686-5.969 0-2.373-2.678-2.653-4.686-2.653.892-.663 2.544-2.387 2.008-3.979-.535-1.591-3.793-.663-5.355 0 .892-.884 2.008-3.05-.67-4.642s-6.471-1.547-8.033-1.326c4.017-1.327 14.058-11.274 18.075-12.6s14.727-7.959 19.413-9.948 8.703-1.99 11.381-2.653c2.142-.53 25.438-15.695 36.819-23.211-12.943 14.59-39.095 44.963-40.166 49.738-1.339 5.969 0 15.764 3.554 16.035 15.16 1.156 36.048-21.28 44.597-32.641 4.686-2.653 13.389 0 18.075-1.327s17.405-7.295 26.777-9.947c9.372-2.653 8.034 1.326 10.042 2.652s2.678 0 13.389-1.326 26.777-3.316 41.505-5.969c11.782-2.122 22.314-6.631 26.108-8.62-2.005 3.53-7.211 11.112-12.023 13.25.728-.29 4.1.65 12.692-1.314-3.57 3.98-12.853 12.733-21.422 15.916 1.562 0 6.159-.398 12.05-1.99-4.686 4.643-19.548 13.662-41.505 12.601 5.132 1.769 17.137 5.438 24.1 5.969-4.24 5.747-14.996 18.436-24.1 23.21-4.686 1.99-2.008 6.633-4.017 9.285-2.008 2.653-4.686-.663-8.033 2.653s-2.678 4.642-13.389 4.642-10.041 2.653-12.719 4.643-4.016.663-5.355 1.326-.67 13.926-9.372 17.906-9.373 0-12.72 1.326 2.009 6.632-2.677 9.284c-4.687 2.653-15.397 1.327-20.084 1.327s-6.024-2.653-10.041-1.99-2.678 3.316-6.694 1.99c-4.017-1.327-5.356-3.979-10.042-1.327s-5.355 0-8.033 0-3.347 3.979-6.025 2.653-2.008 0-3.347 3.316-6.025 8.621-6.025 13.263c0 4.643 8.702 29.843 13.389 36.475s15.397 24.537 20.083 27.853 12.719 12.601 23.43 17.243c8.569 3.714 17.405 6.41 20.752 7.295-5.801 1.768-19.413 5.04-27.447 3.979.893 2.873 1.205 8.621-4.686 8.621s-13.611-4.863-16.735-7.295c-1.116 1.769-4.954 4.642-11.381 1.99-8.033-3.316-14.058-15.917-17.405-18.569-3.347-2.653-12.05-16.58-12.05-23.211 0 6.631-8.703 20.558-12.05 23.211s-9.372 15.253-17.405 18.569c-6.427 2.652-10.265-.221-11.381-1.99-3.124 2.432-10.844 7.295-16.735 7.295s-5.579-5.748-4.686-8.621c-8.034 1.061-21.646-2.211-27.447-3.979 3.347-.885 12.183-3.581 20.752-7.295 10.711-4.642 18.744-13.927 23.43-17.243s15.397-21.221 20.083-27.853c4.687-6.632 13.389-31.832 13.389-36.475 0-4.642-4.686-9.947-6.025-13.263s-.669-4.642-3.347-3.316-3.347-2.653-6.025-2.653-3.347 2.653-8.033 0-6.025 0-10.042 1.327-2.677-1.327-6.694-1.99-5.355 1.99-10.041 1.99c-4.687 0-15.397 1.326-20.084-1.327s.67-7.958-2.677-9.284-4.017 2.653-12.72-1.326-8.033-17.243-9.372-17.906-2.677.663-5.355-1.326-2.008-4.643-12.719-4.643-10.042-1.326-13.389-4.642-6.025 0-8.033-2.653c-2.009-2.652.669-7.295-4.017-9.284-9.104-4.775-19.86-17.464-24.1-23.211 6.963-.53 18.968-4.2 24.1-5.969-21.957 1.061-36.819-7.958-41.505-12.6 5.891 1.592 10.488 1.99 12.05 1.99C251.853 33.263 242.57 24.51 239 20.53c8.592 1.964 11.964 1.024 12.692 1.315-4.812-2.139-10.018-9.721-12.023-13.252"/></g><g clip-path="url(#b)"><path fill="#478561" d="m251.175 475.484-32.831 38.883c13.188-10.797 40.017-32.718 41.825-34.025 2.26-1.634 4.205-1.319 11.999-3.856s9.34-4.688 12.015-7.654 6.065-5.418 10.455-1.707c6.203 11.006 22.73 27.284 33.685 28.659 8.763 1.099 22.843-.566 28.788-1.537 8.163 7.523 12.591 27.041 13.89 35.052s6.56 20.031-3.458 44.841c-4.201 10.402-18.526 21.999-56.763 39.222 38.742-6.323 53.125-17.544 59.461-22.584 1.23-.201 3.075-.502 4.105-1.935.824-1.147 4.156-5.51 4.451-11.48.476.344 2.107.542 4.819-1.419s4.948-16.199 5.727-23.073c1.248 3.802 4.17 12.476 5.873 16.752s3.426 5.555 4.074 5.66c.139-.444 1.101 1.339 3.844 12.023 2.743 10.685 7.651 16.04 9.763 17.383 7.441 24.086 18.09 34.998 22.485 37.444-12.523-18.83-21.417-73.672-24.315-91.543-2.899-17.87-18.534-52.004-24.438-61.161-4.723-7.325-15.913-16.378-20.917-19.989 1.43 1.032 3.275.731 4.405-.086s2.36-1.018 4.819-1.42 5.02-.186 6.765-1.104c1.745-.917 3.39-2.451 6.465-2.952 3.075-.502 2.775-2.351 4.005-2.552 1.23-.2 4.105-1.935 6.265-4.185s4.005-2.551 6.265-4.185 2.675-2.967 3.405-6.249 6.565-2.336 7.295-5.618 4.22-5.116 4.635-6.449 4.32-4.5 4.02-6.349 2.575-3.583 4.22-5.117.016-3.797 4.121-5.732c3.284-1.548 5.345-4.668 5.965-6.034 9.759-2.099 12.009-6.388 11.915-8.27 9.267-2.019 8.591-5.408 7.095-6.851 3.174.115 9.527-.416 9.539-3.454s-6.734-6.492-10.108-7.838c8.942.648 26.874.673 27.058-4.417.231-6.363-24.038-8.094-24.237-9.327 8.094-.688 19.279-5.677 24.929-9.761 4.52-3.268 10.636-4.477 13.129-4.673-4.083-3.382-21.303-.318-29.403 1.636 24.795-12.143 34.171-24.131 35.76-28.607-8.548 6.455-24.081 11.099-30.779 12.614 28.503-17.303 35.414-35.931 35.306-43.082-14.568 16.04-37.776 29.148-47.559 33.696 15.632-15.708 21.021-31.262 21.761-37.076-5.265 10.348-35.89 35.587-36.69 30.657-.799-4.929 16.166-20.981 14.952-24.578-.972-2.878-16.251-.3-23.769 1.349 1.345-3.382 19.195-10.09 16.95-12.254-1.796-1.731-9.081-.205-12.499.775-.4-2.465 10.37-6.12 11.2-8.786.664-2.132-8.943-.649-13.829.36 2.331-2.489 6.812-7.817 6.08-9.216-.915-1.748-2.859-2.063-9.224 1.506s-48.075 34.413-52.095 40.762-12.645 11.551-15.02 16.367c-2.376 4.815-11.761 20.895-14.236 25.094s-15.497 32.891-16.742 36.889-4.282 20.307-7.072 26.455-6.496 10.548-9.371 12.283-4.42 3.884-5.45 5.317-6.265 4.185-10.769 3.655c-3.604-.424-6.421.627-7.38 1.205-2.255.368-7.25-.335-9.193-6.09-1.944-5.755.148-19.843 1.437-26.168-1.146 4.615-11.546 18.33-14.636 22.63-3.09 4.299-7.426 12.597-8.771 15.979s-7.31 9.416-10.5 13.099c-2.552 2.947-4.374 9.359-4.966 12.196"/></g><path fill="#478561" d="M32.812 555.197c3.69-11.038 32.28-39.351 46.114-52.127 5.534-4.293 3.33 5.366 1.537 10.732 6.148-.613 4.099 7.41 2.305 11.499 6.149 0 1.025 11.243-2.305 16.864 7.378 0 2.05 8.688-1.537 13.032 6.148 3.067 5.123 10.477 3.842 13.799 7.379 4.293 3.075 13.032 0 16.865 8.608 4.293 3.587 13.032 0 16.865 7.993.613 8.967 7.921 8.454 11.498 6.764-.613 7.942 5.877 7.686 9.199 7.993 0 7.43 6.644 6.149 9.966 6.763.613 5.38 4.855 3.842 6.899 6.764 0 3.843 7.666 1.538 11.499 5.379-6.899 33.816-23.764 54.567-30.664 20.751-6.899 30.743-11.498 35.354-15.331s4.611-9.966 16.908-16.098c9.838-4.907 31.255-20.954 40.734-28.364-1.537 18.398-9.991 30.663-17.677 39.862-7.685 9.199-23.057 12.266-23.057 12.266s3.525.786 1.988 3.853c-1.537 3.066-14.529 10.238-14.529 10.238s3.842 2.633 0 6.466c-3.843 3.832-18.97 14.705-18.97 14.705s4.823 2.704 1.749 5.77c-3.074 3.067-12.508 10.329-12.508 14.162s-16.909 18.398-19.983 22.23-.769 3.833-2.306 8.433-17.677 18.398-11.528 19.931 17.677 8.432 26.9 19.931 10.759 15.332 18.445 29.897c6.148 11.652 32.792 48.806 45.345 65.926-5.38-4.6-21.52-16.098-26.131-16.865s-6.149-4.599-10.76-9.199-17.677-20.698-28.437-19.931c-10.759.767-13.834 2.3-21.519 7.666-6.149 4.293-15.884 20.698-19.983 28.363 3.074-16.098 4.612-57.493 4.612-66.692s-8.455-16.865-13.835-19.165c-5.379-2.3-21.52 7.666-36.122 2.3s-17.677-3.833-19.982-3.833c-2.306 0-4.612 5.366-1.538 10.732 3.075 5.366 2.306 18.398 3.843 22.231 2.46 6.133 25.619 40.373 36.891 56.727l-7.686-4.599 1.538 4.599c-8.455-13.798-43.04-39.096-54.568-44.462-11.529-5.366-20.751-12.265-25.363-22.231-4.61-9.965-1.537-14.565 0-22.997 1.23-6.746 4.612-24.275 6.149-32.196 2.306 13.031 13.834 9.199 13.834 6.132 0-3.066 6.917-10.732 9.223-13.798 2.305-3.067 4.611-9.199 3.843-13.032-.77-3.833-9.223-8.433-13.066-12.265S8.218 653.32 5.144 646.421s.769-22.231 3.074-30.664c2.306-8.432 12.297-29.13 15.372-35.262s4.61-11.499 9.222-25.298"/><defs><clipPath id="a"><path fill="#fff" d="M239 0h403v248H239z"/></clipPath><clipPath id="b"><path fill="#fff" d="M186 271h327v381H186z"/></clipPath></defs></svg>