<svg xmlns="http://www.w3.org/2000/svg" width="361" height="342" fill="none"><g fill="#1f1f1f" clip-path="url(#a)"><path d="M229.891 337.24c-7.292-5.606-13.333-13.844-15.442-17.262l-6.821 3.556c.238 2.597 3.893 9.988 6.816 12.937 2.339 2.359 10.363 4.169 14.082 4.779zM67.578 23.842c-3.364-10.552-4.569-19.263-4.75-22.3-4.208 1.648-8.865 8.734-7.706 11.923.926 2.55 3.813 9.121 5.141 12.088zM165.252 130.794c-1.062 22.067 6.503 37.892 23.6 46.029l5.986-4.398c-20.117-10.35-22.392-32.923-21.014-42.916z"/><path d="M211.773 317.952c-3.976-5.077-11.932-17.357-11.953-25.862-.027-10.633 2.165-43.436 8.915-64.908 5.4-17.177-4.841-41.806-10.637-51.974l-5.905 4.985c5.177 5.392 14.577 21.945 10.758 45.026-4.774 28.852-6.943 26.159-9.669 64.652l.215 6.782-60.441-121.676L74.413 55.795c7.216 6.27 26.773 20.772 50.098 30.7 29.156 12.411 38.464 30.387 40.512 40.028l8.487-1.034c-1.059-9.305-12.535-31.539-49.969-46.032C76.749 61.34 70.218 32.566 68.058 28.199l-7.405 2.798c1.331 2.409 3.344 9.13.75 16.749l131.762 263.891c2.239.014 7.816 1.925 12.209 9.455z"/><path d="M324.311 89.812 72.933 205.1c-.751.345-1.722-.086-2.142-.997s-.14-1.917.635-2.272l251.378-115.29c.752-.344 1.723.087 2.143.998s.138 1.916-.636 2.271"/><path d="M328.922 77.278c3.334-1.529 28.925-4.96 28.925-4.96s-19.284 17.377-22.618 18.907c-3.335 1.529-11.472-2.57-14.7-1.791 3.135-2.315 5.058-10.627 8.393-12.156M106.677 183.049c-.536.173-1.308.6-1.308.6l-8.176 3.75s5.145 2.567 8.415 1.067l-4.905 2.25c-.938 1.232-1.396 5.566-1.396 5.566l9.811-4.5 1.309-.6c1.308-.6 3.358-6.466 3.358-6.466s-4.578-2.483-7.108-1.667M72.538 210.849c2.081-3.045 2.972-8.959 2.972-8.959s-5.26-4.3-9.331-4.836l-16.048 8.879c3.016-1.383 8.663.079 11.109.982-.543 1.465-4.482 4.588-6.384 5.967l3.092.101-3.87 4.814z"/></g><defs><clipPath id="a"><path fill="#fff" d="M0 0h361v342H0z"/></clipPath></defs></svg>