<svg xmlns="http://www.w3.org/2000/svg" width="764" height="309" fill="none"><g clip-path="url(#a)"><path fill="#261703" d="M714.385 161.877V32.162h45.414l11.77 10.164V309.03H-8.481V133.67h7.072v-32.289h38.368l6.28 7.69v15.973H78.82v51.466h10.463V57.599H113.7V32.756h53.022v71.583h10.464V.216l44.654 26.029v112.407h16.047l25.112-23.664V79.49h20.935V37.487h57.206v50.88l16.395 13.897v21.594h26.163V17.375l7.673-8.876h30.695v-26.03h32.791v-6.51h5.583v7.697h13.256v33.72h13.255v114.766h10.464V57.599l39.064-17.153v124.828h13.958V75.938h53.719V-2.743h22.32l17.447 14.794h29.999v78.088l23.719 20.112v51.626z"/></g><defs><clipPath id="a"><path fill="#fff" d="M0 0h764v309H0z"/></clipPath></defs></svg>