<svg xmlns="http://www.w3.org/2000/svg" width="764" height="315" fill="none"><g clip-path="url(#a)"><path fill="#1c1102" d="m700.567 90.263 10.578-11.633h45.129v16.201H764v220.875H376.251v-.414H185.116v.414H0V115.108h56.437V99.395l10.157-11.17h59.823v13.649h6.778v141.452h11.66V67.131l10.163-11.169V38.592h51.921v103.4h17.307V68.368l5.268-5.788h60.954v113.332h31.607l18.059 31.435v-16.55h14.301v-87.679h30.849v52.936h15.052v136.078h52.033V141.415h59.226v-33.324h112.116v130.992l15.158 16.669V28.251h50.417v97.668h11.281z"/></g><defs><clipPath id="a"><path fill="#fff" d="M0 0h764v315H0z"/></clipPath></defs></svg>