<svg xmlns="http://www.w3.org/2000/svg" width="471" height="629" fill="none"><g clip-path="url(#a)"><path fill="#9d2f2f" fill-rule="evenodd" d="M307.988 631.806s5.169-115.703 4.914-118.057-7.93-21.429-8.508-24.507c-.577-3.077 4.728-45.758 4.488-48.466-.24-2.709-3.604-6.687-3.814-10.104-.211-3.418 16.301-77.946 16.487-82.412s.076-35.725 2.052-49.279c2.469-16.944 13.874-78.971 16.546-83.831 2.673-4.86 9.206-9.202 14.476-8.626 5.269.576 9.437 2.172 9.48 9.632C364.13 219.8 363 279 363 279s-3.053 58.235-2.926 59.512c.249 2.496 2.055 1.507 2.114.089.027-.653-.129-29.579 1.312-61.423 1.691-37.374 4.84-77.892 5.251-79.295s4.318-10.473 9.999-11.3 11.714-1.639 16.454 3.177 5.032 14.772 4.869 18.672c-.028.682-.291 5.191-.7 12.182-.814 13.953-.62 38.873-1.873 61.886-1.707 31.36-4.742 60.107-4.121 61.316 1.306 2.541 2.496-.605 2.658-4.505.08-1.922.624-32 1.963-62.133 1.378-31.019 3.556-62.101 3.951-62.985.778-1.743 3.744-5.17 8.294-4.269s14.119 8.406 16.098 20.209 4.124 70.492 2.193 108.411c-4.091 2.196-12.714 6.996-14.475 8.627-1.07.989-1.845 4.922-2.606 8.777-.806 4.085-1.595 8.083-2.697 8.402-1.368.396-10.641 4.079-18.474 7.191l-.014.005c-4.43 1.76-8.398 3.336-10.211 4.03-1.76.673-3.857 1.113-6.12 1.589-4.193.881-8.956 1.882-13.199 4.703-4.793 3.186-13.704 14.036-20.598 22.431l-.001.001-.002.002c-2.501 3.046-4.737 5.769-6.414 7.684-5.039 5.755-15.314 14.629-19.821 18.346 1.919-.866 6.116-2.797 7.561-3.589 1.805-.99 26.441-24.816 31.257-30.296s12.157-12.275 22.168-15.406c6.675-2.088 14.334-5.239 20.718-7.864l.002-.001c3.19-1.313 6.062-2.494 8.332-3.346l.642-.241c6.809-2.563 16.766-6.31 22.683-.555 5.126 4.986 4.84 8.493 4.468 13.057a70 70 0 0 0-.186 2.749c-.251 6.027-4.377 11.891-5.492 13.265-1.116 1.373-36.306 24.401-39.829 24.254-2.818-.119-9.933 1.24-13.138 1.934l9.864.414c-2.427 1.792-7.857 5.637-10.159 6.677-2.302 1.039-11.92 3.761-16.441 4.992l14.855-.797c-4.611 6.199-14.707 19.271-18.207 21.965s-13.066 8.685-17.411 11.344c4.296-1.477 13.614-4.898 16.515-6.765 3.626-2.334 10.218-8.094 10.982-9.483.538-.979 5.491-6.892 9.149-11.258l.001-.001a482 482 0 0 0 3.491-4.192c1.786-2.198 7.586-7.021 10.263-9.158.786 1.454 3.358 12.571 4.546 17.948 1.21-1.938.615-14.772.166-20.947 11.226-6.868 34.335-21.146 36.966-23.308 3.289-2.703 5.55-6.16 8.193-10.311s5.744-19.291 5.877-22.482c.106-2.553 5.966-7.681 8.883-9.927l-7.575 3.944-.146-4.978c-.142.586-.514 2.18-.867 3.87-.331 1.585-1.231 2.546-2.131 3.507-.3.32-.6.64-.879.984-.893 1.099-2.106 8.198-2.601 11.61 1-7.06-5.824-12.674-9.978-14.624-3.323-1.56-9.585-1.468-12.301-1.227.188-4.505 3.32-11.935 4.466-14.018.916-1.666 6.998-7.046 9.925-9.528 1.815-1.226 6.283-3.429 9.629-2.437 4.184 1.241 12.153 4.772 14.603 13.754s3.152 17.534 2.622 21.774c-.529 4.239-.59 14.181.862 21.7s2.213 14.654 1.477 23.856-3.562 43.179-6.838 54.051-11.236 32.556-17.419 45.437c-4.946 10.305-22.515 32.226-23.302 34.181-.788 1.955-9.531 84.835-9.531 84.835zm11.477-123.108c2.89 6.869 11.488 23.849 25.975 28.791 18.957 6.467 35.101-14.237 45.224-27.22l.001-.001c.654-.839 1.283-1.645 1.885-2.409-.877 4.106-4.26 14.169-10.779 21.566-6.519 7.398-14.852 12.043-18.204 13.442l-6.973 65.764-.514-63.948c-3.405-.143-10.903-.883-13.651-2.703l-9.305 62.469 2.804-67.359c-5.67-5.092-16.9-17.898-16.463-28.392m80.68 37.125c-7.692 1.666-18.02.545-22.223-.223 1.291 2.895 3.933 4.427 5.092 4.83l-1.981 64.554 6.209-64.376c7.668-1.099 11.797-3.648 12.903-4.785" clip-rule="evenodd"/></g><g clip-path="url(#b)"><path fill="#9d2f2f" fill-rule="evenodd" d="M40.895 637.195s-7.038-124.209-7.568-126.696c-.53-2.488-10.84-22.034-11.795-25.26s.096-49.415-.456-52.283c-.553-2.869-4.595-6.752-5.193-10.382s9.016-85.076 8.73-89.869c-.287-4.793-3.805-38.185-3.16-52.885.808-18.376 6.3-85.906 8.639-91.392 2.34-5.485 8.877-10.839 14.595-10.799 5.717.04 10.364 1.29 11.221 9.257.419 3.892 5.592 65.614 5.592 65.614s3.112 64.23 3.387 65.581c.539 2.641 2.37 1.386 2.278-.136-.042-.7-3.747-32.258-5.665-66.445-2.25-40.124-2.886-83.103-2.598-84.648.29-1.544 3.495-11.663 9.501-13.167 6.006-1.505 12.392-3.032 18.002 1.597 5.611 4.629 7.007 15.237 7.257 19.422.043.732.251 5.58.574 13.095C94.879 202.798 97.84 229.27 99 254c1.579 33.699 1.406 64.888 2.204 66.112 1.678 2.573 2.612-.92 2.362-5.105-.123-2.062-2.725-34.16-4.566-66.507-1.895-33.298-3.024-66.857-2.697-67.845.646-1.947 3.456-5.934 8.437-5.467 4.98.466 16.065 7.44 19.473 19.837s12.092 74.88 14.144 115.613c-4.151 2.794-12.882 8.864-14.595 10.799-1.04 1.175-1.444 5.462-1.841 9.665-.421 4.453-.832 8.812-1.981 9.273-1.425.573-10.975 5.522-19.042 9.702l-.014.007c-4.563 2.365-8.65 4.483-10.52 5.422-1.815.911-4.018 1.611-6.394 2.367-4.404 1.399-9.406 2.989-13.653 6.467-4.796 3.928-13.178 16.497-19.663 26.22l-.002.002-.001.002c-2.353 3.529-4.457 6.683-6.048 8.913-4.782 6.7-14.841 17.305-19.274 21.77 1.964-1.136 6.259-3.658 7.723-4.662 1.83-1.255 25.676-29.407 30.247-35.789s11.71-14.445 22.113-18.885c6.936-2.96 14.813-7.164 21.377-10.667l.002-.001c3.281-1.751 6.234-3.327 8.578-4.485l.662-.328c7.028-3.483 17.306-8.575 24.281-3.071 6.043 4.768 6.117 8.547 6.215 13.465.018.94.038 1.921.1 2.958.386 6.468-3.404 13.185-4.452 14.775s-36.306 30.042-40.102 30.269c-3.037.181-10.524 2.411-13.888 3.502l10.63-.635c-2.41 2.181-7.818 6.882-10.175 8.245s-12.383 5.321-17.1 7.13l15.854-2.474c-4.274 7.128-13.686 22.2-17.149 25.461-3.463 3.262-13.076 10.709-17.45 14.025 4.45-2.048 14.076-6.721 16.986-9.033 3.638-2.89 10.085-9.766 10.753-11.334.472-1.104 5.144-7.964 8.594-13.029l.001-.001a521 521 0 0 0 3.29-4.862c1.678-2.544 7.377-8.331 10.017-10.907 1.002 1.467 4.972 13.067 6.831 18.683 1.088-2.203-.946-15.853-2.1-22.402 11.3-8.567 34.546-26.348 37.134-28.946 3.235-3.248 5.285-7.189 7.67-11.913s4.065-21.244 3.861-24.668c-.164-2.739 5.567-8.86 8.452-11.578l-7.7 5.042-.697-5.304a150 150 0 0 0-.51 4.23c-.182 1.73-1.044 2.855-1.905 3.98-.287.375-.575.751-.837 1.148-.838 1.272-1.368 8.991-1.527 12.692.304-7.655-7.63-12.909-12.299-14.539-3.735-1.304-10.445-.522-13.333.033-.289-4.836 2.264-13.118 3.267-15.468.802-1.881 6.744-8.294 9.614-11.266 1.815-1.508 6.37-4.351 10.069-3.656 4.624.869 13.56 3.772 17.166 13.102s5.289 18.394 5.182 22.982.909 15.219 3.285 23.096c2.375 7.876 3.969 15.418 4.18 25.333s.874 46.53-1.458 58.506c-2.333 11.976-8.517 36.019-13.751 50.459-4.186 11.553-20.656 36.897-21.288 39.072s-1 91.699-1 91.699zM39.82 504.383c3.849 7.025 14.922 24.232 31.005 27.931 21.047 4.84 36.119-19.048 45.571-34.028l.001-.002c.61-.967 1.197-1.897 1.76-2.78-.494 4.484-3.03 15.607-9.221 24.224s-14.629 14.492-18.073 16.353l-.33 71.039-7.507-68.28c-3.67.219-11.796.246-14.942-1.399l-3.191 67.774-4.318-72.289c-6.638-4.822-20.082-17.281-20.755-28.543m90.617 30.861c-8.073 2.621-19.279 2.552-23.872 2.19 1.7 2.953 4.701 4.3 5.99 4.605l4.895 69.201-.34-69.473c8.11-2.012 12.264-5.187 13.327-6.523" clip-rule="evenodd"/></g><g clip-path="url(#c)"><path fill="#b33939" d="M154.484 644s.515-166.22 0-169.58c-.514-3.36-12.87-30.251-13.9-34.63-1.029-4.378 4.119-65.898 3.604-69.767-.515-3.87-5.663-9.372-6.178-14.259s19.049-112.75 19.049-119.166-2.06-51.231 0-70.786c2.574-24.444 15.444-114.073 19.048-121.202s12.871-13.75 20.593-13.241c7.723.51 12.517 2.971 16.937 9.939 0-8.411 1.821-19.825 3.142-23.18.515-2.037 5.663-15.277 13.9-16.805s16.99-3.055 24.197 3.565 10.823 20.366 10.823 25.968c0 .98.503 4.48.503 8.661 1.03-2.546 5.149-7.639 11.842-6.62 6.692 1.018 21.87 14 25.474 30.806s11.32 92.307 10.805 146.797c2.574-1.867 8.81-1.222 13.752 0 6.178 1.528 16.381 7.765 20.5 20.497s5.663 24.953 5.148 31.064c-.514 6.111 0 20.37 2.575 31.065 2.574 10.694 4.118 20.879 3.603 34.119-.514 13.241-2.574 62.129-6.692 77.916s-14.416 47.361-22.653 66.203c-6.59 15.074-29.755 42.785-30.785 45.636-1.029 2.851-7.55 127-7.55 127z"/><path fill="#952d2d" fill-rule="evenodd" d="M157.51 637.5s.5-163.2 0-166.499-12.5-29.701-13.5-34 4-64.701 3.5-68.5-5.5-9.201-6-14 18.5-110.701 18.5-117-2-50.3 0-69.5c2.5-24 15-112 18.5-119s12.5-13.5 20-13 13.5 2.5 14 13c.244 5.128 2.983 90.011 2.983 90.011s-1.739 80.698-1.483 82.489c.5 3.5 3 2 3 0 0-.92-1.673-40.083-1.51-85.001.191-52.718 2.01-111.5 2.51-113.5s5.5-15 13.5-16.5 16.5-3 23.5 3.5 8 20.5 8 26c0 .963-.107 7.327-.273 17.193-.332 19.692 1.181 53.833.763 86.307-.076 5.911-.675 11.773-.788 17.5-.731 37.148-2.027 68.558-1.202 70.001 2 3.5 1.99-2.001 1.99-7.501 0-2.71-1.718-24 .059-86.5.123-43.752 1.943-87.731 2.451-89 1-2.5 5-7.5 11.5-6.5s20.5 11 24 27.5 10 99.001 9.5 152.501c-5.667 3.333-17.6 10.6-20 13-1.457 1.457-2.324 7.039-3.174 12.512-.901 5.798-1.783 11.474-3.326 11.988-1.916.638-14.836 6.372-25.751 11.215l-.018.008c-6.174 2.74-11.703 5.193-14.231 6.277-2.454 1.052-5.399 1.796-8.577 2.599-5.889 1.489-12.578 3.179-18.423 7.401-6.603 4.769-18.589 20.571-27.861 32.797l-.002.003-.002.002c-3.365 4.437-6.372 8.402-8.635 11.198-6.8 8.4-20.834 21.5-27 27 2.666-1.333 8.5-4.3 10.5-5.5 2.5-1.5 36-36.5 42.5-44.5s16.5-18 30.5-23c9.333-3.333 20-8.222 28.889-12.296l.003-.002c4.443-2.036 8.442-3.869 11.608-5.202l.895-.378c9.496-4.01 23.383-9.875 32.105-2.122 7.557 6.717 7.358 11.672 7.101 18.12a94 94 0 0 0-.101 3.88c0 8.5-5.5 17-7 19s-50 36.5-55 36.5c-4 0-14 2.333-18.5 3.5h14c-3.334 2.667-10.8 8.4-14 10s-16.667 6-23 8l21-2c-6.167 9-19.7 28-24.5 32s-18 13-24 17c6-2.333 19-7.7 23-10.5 5-3.5 14-12 15-14 .705-1.41 7.374-10.027 12.299-16.39l.001-.001c2.06-2.662 3.815-4.929 4.7-6.109 2.4-3.2 10.333-10.333 14-13.5 1.2 2 5.5 17.5 7.5 25 1.6-2.8 0-20.833-1-29.5 15.5-10.333 47.4-31.8 51-35 4.5-4 7.5-9 11-15s7-27.5 7-32c0-3.6 8-11.167 12-14.5l-10.5 6-.5-7c-.167.833-.6 3.1-1 5.5-.375 2.25-1.594 3.656-2.813 5.062-.406.469-.812.938-1.187 1.438-1.2 1.6-2.5 11.667-3 16.5 1-10-9-17.5-15-20-4.8-2-13.667-1.5-17.5-1 0-6.354 4-17 5.5-20 1.2-2.4 9.5-10.333 13.5-14 2.5-1.833 8.7-5.2 13.5-4 6 1.5 17.5 6 21.5 18.5s5.5 24.5 5 30.5 0 20 2.5 30.5 4 20.5 3.5 33.5-2.5 61-6.5 76.5-14 46.5-22 65c-6.4 14.8-30 46.7-31 49.499s-8.5 120-8.5 120zm9-173.999c4.5 9.5 17.683 32.898 38.5 39 27.24 7.984 48.892-22.119 62.47-40.996l.002-.001a750 750 0 0 1 2.528-3.503c-1 5.833-5.2 20.2-14 31s-20.334 17.833-25 19.999l-6 93-4.5-90c-4.834 0-15.5-.6-19.5-3l-9.5 88.5v-94.999c-8.334-6.834-25-24.2-25-39M283.01 511c-10.8 2.8-25.5 1.834-31.5 1 2 4 5.833 6 7.5 6.5l1 91 5-91c10.8-2 16.5-5.833 18-7.5" clip-rule="evenodd"/></g><defs><clipPath id="a"><path fill="#fff" d="M293 183h178v446H293z"/></clipPath><clipPath id="b"><path fill="#fff" d="M0 147h192v482H0z"/></clipPath><clipPath id="c"><path fill="#fff" d="M136 0h231v629H136z"/></clipPath></defs></svg>