<svg xmlns="http://www.w3.org/2000/svg" width="589" height="192" fill="none"><g fill="#1f1f1f" clip-path="url(#a)"><path d="M281.535 154.853c-6.612-.544-13.209-.928-19.797-1.393-5.489-.552-10.959-1.238-16.43-1.883 2.716-12.681 1.646-25.433-3.297-36.331-6.894-15.2-21.236-26.574-38.996-30.97-4.522 17.68-1.264 35.662 8.901 48.914 5.349 6.975 12.571 12.589 20.974 16.51-3.436-.589-6.867-1.195-10.306-1.763l-2.431-.416-2.408-.547-4.815-1.091-9.622-2.176a430 430 0 0 1-17.645-4.767c4.445-10.738 5.681-22.133 3.321-32.632-3.434-15.268-14.434-28.434-29.909-35.84-7.525 15.38-7.961 32.511-1.156 46.611 3.238 6.706 8.092 12.681 14.143 17.607-11.896-3.962-23.599-8.509-35.014-13.731 4.702-9.44 6.461-19.697 4.824-29.29-2.307-13.527-11.338-25.56-24.551-32.748-7.297 13.127-8.462 28.111-3.146 40.766 2.435 5.8 6.218 11.078 11.027 15.557A340 340 0 0 1 94.41 97.506c4.765-8.074 6.995-17.05 6.197-25.675-1.135-12.279-8.4-23.68-19.744-31.027-7.442 11.262-9.52 24.608-5.628 36.314 1.361 4.094 3.446 7.968 6.135 11.504a341 341 0 0 1-18.493-14.216c-2.514-2.058-5-4.157-7.451-6.288 5.417-7.661 8.26-16.472 7.91-25.075-.474-11.608-6.754-22.684-17.07-30.146-7.548 10.236-10.149 22.695-7.056 33.895 1.147 4.16 3.075 8.124 5.657 11.758-4.237-4-8.37-8.113-12.4-12.326 1.678-9.198.546-18.358-3.383-26.004C23.771 9.881 13.408 2.454.904 0c-2.54 12.45.338 24.847 7.858 33.72 5.5 6.487 13.426 11.028 22.454 13.063A344 344 0 0 0 58.88 73.91c-4.376-2.307-9.037-3.817-13.788-4.412-12.269-1.531-24.995 3.093-34.631 12.56 9.431 9.668 22.057 14.558 34.356 13.281 9.123-.946 17.971-5.266 25.215-12.113a344 344 0 0 0 34.866 24.472c-7.386-2.419-15.027-3.105-22.289-1.86-13.559 2.327-25.609 11.354-32.796 24.54 13.177 7.25 28.206 8.388 40.888 3.063 9.293-3.9 17.236-11.226 22.721-20.687a344 344 0 0 0 14.084 7.648 351 351 0 0 0 22.484 10.591c-7.602-.946-15.148-.361-22.137 1.842-14.964 4.716-27.183 16.764-33.262 32.771 16.009 6.165 33.164 5.139 46.67-2.829 9.746-5.748 17.5-15.052 22.256-26.35 11.599 4.358 23.46 8.036 35.524 10.895-6.125.423-12.05 1.792-17.535 4.125-15.386 6.549-27.101 20.602-31.886 38.214 17.63 4.891 35.729 2.023 49.232-7.823 9.755-7.114 17.019-17.799 20.888-30.293.715.109 1.436.192 2.15.289l9.906 1.31c3.303.399 6.586.967 9.913 1.156 6.644.393 13.274.908 19.907 1.198 6.654-.068 13.289-.054 19.913-.202l.22-.204-.205-.242h-.015zM556.991 46.783c9.031-2.035 16.954-6.576 22.454-13.063 7.519-8.873 10.401-21.27 7.857-33.72-12.5 2.454-22.866 9.881-28.176 20.22-3.932 7.646-5.065 16.806-3.387 26.004A342 342 0 0 1 543.34 58.55c2.579-3.634 4.506-7.598 5.657-11.758 3.092-11.2.489-23.66-7.06-33.895-10.315 7.46-16.592 18.538-17.07 30.146-.353 8.606 2.491 17.417 7.911 25.075a351 351 0 0 1-7.451 6.288 341 341 0 0 1-18.493 14.216c2.689-3.536 4.773-7.41 6.131-11.504 3.894-11.706 1.815-25.052-5.624-36.314-11.345 7.347-18.609 18.748-19.742 31.027-.8 8.625 1.433 17.598 6.194 25.675a340 340 0 0 1-30.792 17.734c4.81-4.482 8.59-9.757 11.024-15.557 5.317-12.655 4.151-27.639-3.146-40.766-13.209 7.19-22.243 19.22-24.55 32.747-1.64 9.594.124 19.851 4.824 29.291-11.413 5.222-23.116 9.769-35.014 13.731 6.051-4.926 10.905-10.901 14.143-17.607 6.808-14.097 6.372-31.23-1.154-46.61-15.471 7.405-26.475 20.571-29.908 35.839-2.363 10.499-1.124 21.894 3.321 32.633a426 426 0 0 1-17.645 4.766l-9.622 2.176-4.818 1.091-2.405.547-2.431.417c-3.437.567-6.87 1.173-10.31 1.762 8.406-3.921 15.626-9.538 20.978-16.51 10.164-13.252 13.423-31.234 8.901-48.915-17.76 4.397-32.102 15.771-38.996 30.971-4.943 10.895-6.016 23.65-3.297 36.331-5.468.645-10.941 1.331-16.43 1.883-6.585.465-13.182.849-19.797 1.393h-.015l-.205.219.22.227c6.624.148 13.262.134 19.916.202 6.63-.287 13.26-.802 19.907-1.198 3.324-.192 6.606-.757 9.91-1.156l9.903-1.31c.717-.097 1.438-.18 2.152-.289 3.87 12.494 11.134 23.179 20.889 30.293 13.503 9.849 31.602 12.714 49.232 7.823-4.788-17.609-16.5-31.665-31.889-38.214-5.482-2.333-11.41-3.705-17.532-4.125 12.067-2.862 23.925-6.537 35.524-10.895 4.756 11.301 12.509 20.602 22.256 26.35 13.505 7.965 30.661 8.994 46.67 2.829-6.076-16.007-18.295-28.055-33.259-32.771-6.989-2.203-14.535-2.788-22.138-1.842a351 351 0 0 0 22.484-10.591 341 341 0 0 0 14.082-7.648c5.485 9.461 13.428 16.787 22.721 20.687 12.681 5.325 27.711 4.19 40.888-3.063-7.187-13.186-19.234-22.213-32.797-24.54-7.261-1.245-14.902-.562-22.288 1.86a343 343 0 0 0 34.866-24.472c7.247 6.847 16.098 11.167 25.215 12.113 12.299 1.277 24.927-3.616 34.359-13.281-9.633-9.467-22.359-14.094-34.632-12.56-4.753.595-9.408 2.105-13.787 4.412a344 344 0 0 0 27.664-27.127z"/></g><defs><clipPath id="a"><path fill="#fff" d="M0 0h589v192H0z"/></clipPath></defs></svg>