<svg xmlns="http://www.w3.org/2000/svg" width="307" height="100" fill="none"><g fill="#a53131" clip-path="url(#a)"><path d="M146.743 80.653c-3.447-.284-6.885-.484-10.319-.726-2.861-.288-5.712-.645-8.564-.98 1.416-6.605.858-13.247-1.718-18.923-3.593-7.917-11.069-13.84-20.326-16.13-2.357 9.208-.658 18.574 4.639 25.476 2.788 3.632 6.553 6.557 10.933 8.599-1.791-.307-3.579-.623-5.372-.918l-1.267-.217-1.255-.285-2.51-.569-5.015-1.133q-4.625-1.143-9.197-2.482c2.317-5.593 2.961-11.528 1.73-16.996-1.789-7.952-7.522-14.81-15.588-18.667-3.922 8.01-4.15 16.933-.603 24.277 1.688 3.492 4.218 6.604 7.372 9.17-6.2-2.064-12.3-4.432-18.25-7.151 2.45-4.917 3.367-10.26 2.514-15.256-1.202-7.045-5.91-13.313-12.796-17.056-3.804 6.837-4.411 14.641-1.64 21.232 1.269 3.021 3.24 5.77 5.748 8.103a177 177 0 0 1-16.05-9.236c2.484-4.206 3.646-8.881 3.23-13.373-.592-6.395-4.378-12.333-10.291-16.16-3.88 5.866-4.963 12.817-2.933 18.913.709 2.133 1.795 4.15 3.197 5.992a178 178 0 0 1-9.639-7.404 171 171 0 0 1-3.884-3.275c2.824-3.99 4.306-8.579 4.124-13.06-.248-6.046-3.52-11.814-8.897-15.7-3.935 5.33-5.29 11.82-3.679 17.653.598 2.166 1.603 4.231 2.949 6.124a179 179 0 0 1-6.463-6.42c.875-4.79.284-9.561-1.763-13.544C12.39 5.146 6.989 1.278.472 0-.853 6.485.648 12.941 4.567 17.563c2.867 3.378 6.998 5.744 11.704 6.803A179 179 0 0 0 30.69 38.495c-2.281-1.201-4.71-1.988-7.187-2.298-6.395-.798-13.028 1.61-18.05 6.542 4.916 5.035 11.496 7.582 17.907 6.917 4.755-.493 9.367-2.743 13.142-6.31a179 179 0 0 0 18.173 12.747c-3.85-1.26-7.832-1.617-11.617-.969-7.067 1.212-13.348 5.913-17.094 12.781 6.868 3.776 14.702 4.369 21.312 1.596 4.843-2.032 8.983-5.847 11.842-10.775a179 179 0 0 0 7.341 3.984 183 183 0 0 0 11.72 5.516c-3.963-.493-7.896-.188-11.539.959-7.8 2.456-14.169 8.731-17.337 17.068 8.344 3.211 17.286 2.677 24.326-1.473 5.08-2.994 9.121-7.84 11.6-13.724 6.046 2.27 12.228 4.185 18.516 5.675-3.193.22-6.28.933-9.14 2.148-8.02 3.41-14.125 10.73-16.62 19.903 9.19 2.547 18.623 1.053 25.661-4.075 5.085-3.705 8.871-9.27 10.888-15.777.372.056.748.1 1.12.15l5.164.683c1.721.207 3.432.503 5.166.602 3.464.205 6.919.472 10.376.623 3.468-.035 6.927-.027 10.38-.104l.114-.107-.107-.126h-.007zM290.316 24.366c4.707-1.06 8.837-3.425 11.704-6.803 3.919-4.622 5.421-11.078 4.095-17.563-6.515 1.278-11.918 5.146-14.686 10.531-2.05 3.983-2.64 8.753-1.765 13.544a179 179 0 0 1-6.463 6.42c1.344-1.893 2.349-3.958 2.948-6.124 1.612-5.834.255-12.323-3.679-17.654-5.377 3.885-8.649 9.655-8.897 15.701-.184 4.483 1.298 9.072 4.123 13.06a183 183 0 0 1-3.884 3.275 178 178 0 0 1-9.639 7.404c1.402-1.842 2.488-3.859 3.196-5.992 2.029-6.096.946-13.047-2.932-18.913-5.913 3.827-9.699 9.765-10.289 16.16-.418 4.492.746 9.166 3.228 13.373a177 177 0 0 1-16.049 9.236c2.506-2.335 4.477-5.082 5.746-8.103 2.771-6.59 2.163-14.395-1.64-21.232-6.885 3.745-11.594 10.01-12.796 17.056-.855 4.997.064 10.339 2.514 15.256-5.948 2.72-12.048 5.087-18.25 7.15 3.154-2.565 5.684-5.677 7.372-9.17 3.548-7.342 3.321-16.265-.602-24.276-8.064 3.858-13.799 10.715-15.589 18.667-1.231 5.468-.585 11.403 1.731 16.996q-4.572 1.34-9.197 2.482l-5.015 1.134-2.511.568-1.253.285-1.268.217c-1.791.295-3.581.611-5.373.918 4.381-2.042 8.144-4.968 10.934-8.6 5.298-6.901 6.996-16.267 4.639-25.475-9.257 2.29-16.732 8.213-20.326 16.13-2.576 5.675-3.135 12.318-1.718 18.922-2.85.336-5.703.693-8.563.981-3.433.242-6.872.442-10.319.726h-.008l-.107.114.115.118c3.452.077 6.912.07 10.38.105 3.456-.15 6.912-.417 10.377-.624 1.732-.1 3.443-.394 5.164-.602l5.162-.682c.374-.05.75-.094 1.122-.151 2.017 6.508 5.803 12.073 10.888 15.778 7.038 5.13 16.471 6.621 25.661 4.075-2.496-9.172-8.601-16.493-16.622-19.904-2.857-1.215-5.947-1.93-9.138-2.148 6.29-1.49 12.47-3.405 18.516-5.674 2.479 5.885 6.52 10.73 11.6 13.723 7.04 4.149 15.982 4.685 24.326 1.474-3.167-8.337-9.536-14.612-17.336-17.068-3.642-1.148-7.575-1.453-11.538-.96a184 184 0 0 0 11.719-5.516 178 178 0 0 0 7.34-3.984c2.859 4.928 6.999 8.744 11.842 10.775 6.61 2.773 14.444 2.182 21.312-1.595-3.746-6.868-10.025-11.57-17.094-12.781-3.785-.649-7.767-.293-11.617.968a179 179 0 0 0 18.173-12.746c3.777 3.567 8.39 5.817 13.142 6.31 6.411.665 12.993-1.884 17.909-6.918-5.021-4.93-11.654-7.34-18.051-6.541-2.477.31-4.904 1.096-7.186 2.297a179 179 0 0 0 14.419-14.129z"/></g><defs><clipPath id="a"><path fill="#fff" d="M0 0h307v100H0z"/></clipPath></defs></svg>