<svg xmlns="http://www.w3.org/2000/svg" width="390" height="448" fill="none"><g fill="#a53131" clip-path="url(#a)"><path d="M138.864.92c-2.947 1.205-6.939 4.603-11.816 10.062-2.09 2.381-3.938 4.308-4.046 4.308-.107 0-.669.401-1.205.883-.563.509-1.206 1.017-1.447 1.15-.241.134-1.367 1.312-2.519 2.65-1.152 1.311-2.384 2.676-2.733 2.997-.348.348-.803 1.017-1.018 1.472-.187.481-.75 1.23-1.206 1.685-.482.428-1.098 1.258-1.366 1.793-.295.562-.616 1.017-.75 1.017-.402 0-1.876 1.66-2.331 2.65-.724 1.551-7.154 8.054-7.985 8.054-.536 0-3.242 1.471-3.885 2.087-.214.214-.884.615-1.473.91-1.956.91-2.707 1.338-3.376 1.953-.376.321-.992.669-1.367.75-.375.106-1.152.534-1.715.99-.562.427-1.152.802-1.286.802-.16 0-.67.348-1.125.776-.429.428-1.34 1.044-2.01 1.392s-1.768 1.097-2.438 1.659c-.697.535-1.366.99-1.527.99-.188 0-.643.374-1.045.83-.429.454-1.099 1.016-1.527 1.23-.429.214-1.152.803-1.608 1.285-.482.535-1.286 1.016-1.956 1.204-.696.16-1.607.722-2.33 1.418-2.225 2.06-3.645 3.184-4.904 3.88-.724.375-2.438 1.82-3.858 3.238-1.394 1.418-2.84 2.756-3.162 2.97-.348.214-.965.669-1.34.963a5 5 0 0 1-1.259.75c-.322.107-.777.401-1.045.695-.268.295-.697.535-.965.535-.321 0-.562.295-.723.857-.134.562-.482 1.017-.938 1.23-.696.322-1.795 1.633-1.795 2.115 0 .133-.616.776-1.34 1.445-.75.642-1.634 1.605-1.982 2.114s-1.313 1.632-2.117 2.461c-.804.83-1.554 1.766-1.661 2.06-.08.322-.241.563-.348.563-.108 0-.59.348-1.099.749-.616.535-.911 1.044-.991 1.686-.054.508-.268.963-.456 1.017-.16.053-.964.722-1.715 1.498-1.098 1.07-1.42 1.579-1.42 2.221 0 .83-.536 1.525-1.822 2.382-.321.24-.59.615-.536.856.027.24-.321.856-.803 1.365-.83.883-1.581 2.194-2.17 3.8-.188.481-.483.749-.831.749-.402 0-.536.187-.536.695 0 .723-.563 1.579-2.09 3.265-.777.856-.83 1.017-.482 1.284.59.402.536.536-.322.884-.428.187-.991.695-1.26 1.177-.267.482-.723 1.017-.99 1.204-.268.187-.483.482-.483.642 0 .188-.268.589-.562.91-.322.348-.563.963-.563 1.365 0 .401-.214.883-.482 1.07s-.617.883-.777 1.525c-.161.723-.51 1.338-.83 1.499-.296.16-.537.508-.537.803 0 .267-.321.883-.723 1.338-.59.722-.67.936-.402 1.364.214.321.214.535.053.643-.16.107-.455.615-.67 1.123-.24.536-.642 1.124-.91 1.312-.322.24-.536.802-.617 1.739-.107 1.043-.294 1.498-.83 1.953-.59.482-.724.83-.804 2.221-.054.99-.268 1.873-.51 2.141-.696.803-1.017 2.167-.723 2.943.215.562.134.776-.455 1.338-.482.429-.643.83-.563 1.205.107.321-.134 1.097-.562 1.873-.67 1.231-.67 1.338-.242 1.578.643.375.563.803-.321 1.767-.429.481-.857 1.311-.938 1.873a95 95 0 0 0-.375 2.221c-.134.829-.348 1.284-.723 1.445-.456.187-.536.508-.59 2.301-.027 1.793-.134 2.167-.696 2.783-.43.455-.724 1.15-.804 1.846-.322 2.863-.777 4.629-1.286 5.004-.402.321-.483.616-.375 1.204.134.589-.054 1.231-.643 2.409-.456.883-.697 1.712-.59 1.873.134.133.295 1.204.402 2.328.16 1.926.134 2.087-.402 2.354-.375.215-.509.482-.429.857.08.294.027.776-.16 1.043-.215.348-.215.643.08 1.151.322.615.295.83-.214 1.873-.322.642-.59 1.365-.59 1.606 0 .267-.134.722-.321 1.043-.188.321-.349 1.365-.349 2.328-.026.964-.24 2.275-.509 2.944-.455 1.124-.455 1.231 0 1.98.536.883.563 2.141.08 3.024-.267.481-.267.695-.026.936.187.188.321.83.321 1.472 0 1.017-.107 1.472-.83 3.158-.322.749-.483 4.656-.215 4.843.376.241.268 1.231-.187 1.739-.375.428-.375.509.027 1.124.348.535.402 1.311.348 4.442-.08 3.345-.134 3.8-.563 3.934-.375.133-.428.321-.294 1.124.107.535.321 1.284.509 1.659.482.99.723 2.595.402 2.809-.43.268-.322.937.134.937.643 0 .75.696.24 1.445-.401.669-.401.749 0 1.204.537.589.563 1.07.027 1.258-.428.187-.535 1.097-.16 1.685.134.214.134.75-.027 1.258-.188.749-.134 1.044.295 1.659.509.723.616 2.248.187 2.944-.08.16.08.321.429.374.697.081.884.669.455 1.285-.214.294-.321.321-.428.053-.215-.562-.617-.348-.617.321 0 .402.188.723.483.803.804.268 1.741 1.713 1.554 2.435-.08.321-.027.99.134 1.445.24.642.214.937-.054 1.258-.268.348-.16.535.697 1.231.964.829.991.883.83 2.194-.08.91 0 1.766.268 2.542.215.642.375 1.632.322 2.194-.027.589.08 1.178.268 1.365.455.455.402 1.552-.08 1.552q-.403 0-.403.803c0 .883.67 1.15.885.321.08-.268.134-.187.16.267.027.429.242.857.536.99.349.215.563.696.67 1.633.08.722.241 1.98.322 2.729.08.776.402 1.713.67 2.061.294.347.509 1.07.509 1.632 0 .642.187 1.151.535 1.472.295.267.536.615.536.802 0 .161.375.643.804 1.071.67.642.777.936.643 1.552-.107.481-.027.91.241 1.204.911 1.07 1.769 3.238 1.608 4.148-.134.883.616 2.863 1.26 3.264.562.348 1.392 2.542 1.232 3.211-.107.455-.027.723.321.91.268.134.643.776.83 1.418.188.642.831 1.659 1.394 2.275.563.642 1.045 1.391 1.045 1.686 0 .321.295 1.016.67 1.552.375.535.67 1.15.67 1.391 0 .214.375.937.803 1.579.456.642.804 1.391.804 1.632s.536 1.124 1.152 1.927c.643.829 1.34 1.9 1.555 2.408.482 1.231 1.366 2.462 2.572 3.693.562.562 1.554 2.087 2.224 3.398.643 1.285 1.527 2.837 1.929 3.425.428.589 1.366 1.98 2.116 3.078s1.635 2.301 1.983 2.675c.322.375.83 1.098 1.072 1.606.268.508.884 1.391 1.366 1.953.51.536.911 1.151.911 1.365s.349.669.777 1.017c.429.375.911.937 1.099 1.311.187.348 1.098 1.392 1.983 2.301.91.937 1.768 2.007 1.929 2.409.348.802.402.883 3.992 5.03 1.393 1.606 3 3.64 3.537 4.469.562.856 1.205 1.606 1.447 1.686.214.08.696.696 1.018 1.365.348.669 1.018 1.471 1.527 1.792.482.322 1.018.91 1.152 1.285.134.428.67.91 1.286 1.204.724.375 1.099.776 1.313 1.445.16.508.536.99.804 1.07.536.134 1.527.937 2.894 2.302 2.652 2.649 4.34 4.549 4.447 5.004.08.294.51.669.938.802 1.018.321 1.742.964 1.742 1.526 0 .481.937 1.418 1.688 1.685.348.134.428.348.321.696-.107.375.08.642.804 1.07.536.295 1.26.562 1.608.562.482 0 .75.241 1.044.857.483 1.124 1.715 2.274 2.573 2.408.562.054.696.241.75 1.07.053.536.268 1.124.482 1.285.215.187.375.535.375.749 0 .348.054.348.349-.053.294-.375.482-.429.884-.215.268.161.723.348.964.429.295.08.402.294.322.562-.107.24.053.668.402 1.016.294.348.616.99.723 1.419.161.776.08.856-1.206 1.418-.75.321-1.366.722-1.366.91 0 .401-2.653 2.194-4.635 3.157-.697.321-1.822 1.124-2.465 1.766-.67.642-1.367 1.151-1.554 1.151-.215 0-.617.321-.965.696-.321.374-.991.856-1.5 1.07-.483.187-.965.482-1.045.615-.161.241-4.635 2.489-5.975 2.997-.858.321-1.849-.107-2.706-1.15-1.742-2.114-3.751-4.068-4.716-4.549-1.179-.589-3.269-.696-4.233-.188-.938.455-4.957 4.737-6.029 6.396-1.286 1.98-2.465 3.318-7.047 7.974-2.143 2.167-4.555 4.656-5.358 5.539-.804.883-3.859 3.853-6.806 6.556-8.735 8.135-9.404 8.804-9.056 9.152.321.321 2.197-.161 5.412-1.392.67-.268 2.412-.803 3.885-1.204 1.474-.401 3.215-.883 3.885-1.07 2.438-.723 3.939-.991 6.029-1.098 2.036-.107 2.894.107 4.662 1.178.053.027-.027.348-.214.696-.402.722-.295 1.819.187 1.98.215.053.322-.214.322-.857 0-.829.08-.963.643-.963.348 0 .777.187.964.402.188.214.536.401.804.401s.67.321.938.696c.402.642.59.695 1.58.562 1.367-.188 2.037.107 1.528.722-.268.294-.482.348-.83.161-.295-.161-.563-.161-.644-.027-.187.267.08.562.51.562.401 0 2.277 1.739 2.277 2.114 0 .16.24.294.536.294.777 0 .67-.722-.188-1.124-1.018-.481-1.045-.91-.08-1.231 1.072-.374 1.42-.241 2.33 1.071l.751 1.097-.027 9.258c0 5.7-.134 9.928-.321 10.998-.188.964-.429 2.89-.59 4.282s-.428 3.452-.59 4.549c-.16 1.097-.32 2.676-.348 3.532-.053.829-.348 2.381-.67 3.479-1.071 3.478-.642 5.351 1.233 5.351 1.152 0 1.795-.963 1.634-2.435-.08-.776.054-1.686.376-2.649.267-.803.509-1.98.509-2.569 0-.615.134-1.525.268-2.033.375-1.205.75-3.773 1.045-6.851.133-1.364.294-2.569.401-2.729.885-1.445 1.608-12.925 1.287-20.524-.161-3.265-.134-5.352.026-5.86.161-.429.884-1.365 1.635-2.061.75-.722 1.688-1.605 2.063-1.98.429-.428.857-.615 1.125-.508.322.107.483-.054.616-.616.108-.401.483-1.124.831-1.579.322-.455.616-.909.616-.99s.643-.829 1.447-1.659c1.474-1.552 1.768-2.247 1.768-4.549 0-1.659-.562-5.244-.964-6.208-.51-1.15-.482-2.328.107-2.81 1.179-1.043 3.483-2.461 6.645-4.094 1.902-.99 3.778-2.033 4.18-2.301.375-.294.777-.508.884-.508.563 0 3.35-1.526 4.046-2.195.777-.776 1.956-1.525 7.073-4.415 2.224-1.257 2.331-1.284 4.555-1.284 2.358.027 4.877.455 6.35 1.097.456.214.938.375 1.072.375.161 0 .482.24.75.535.268.294.804.535 1.179.535s1.099.241 1.608.562c.509.294 1.152.589 1.42.642.294.054.884.428 1.313.803.455.374 1.018.669 1.232.669.429 0 1.501.589 3.296 1.766.562.375 1.741.749 2.947.936 1.099.161 2.304.509 2.679.723.376.241 1.769.829 3.082 1.284 3.456 1.258 5.841 2.248 6.323 2.676.214.214.616.375.884.375.563 0 3.483.99 4.528 1.525.429.214 2.412.803 4.421 1.311 1.983.482 3.751 1.017 3.912 1.178.134.134.67.267 1.152.267.509 0 1.393.241 2.01.562 1.125.589 2.947 1.151 5.037 1.579.696.161 1.42.535 1.688.856.429.509.804.616 2.492.643 2.224.08 4.581.561 5.224 1.097.268.214 1.153.348 2.412.348 1.232 0 2.143.133 2.331.321.375.374 2.84 1.07 3.671 1.016 2.277-.08 2.893-.026 4.179.429.804.267 1.688.642 1.983.829.697.455 1.393.428 1.581-.053.295-.776 2.17-.214 2.17.642 0 .08.536.134 1.206.08.67-.027 1.474.08 1.822.268.455.241.67.241.911 0 .482-.482.67-.402.964.455.215.615.402.749.911.642.536-.107.724.027 1.019.722.294.723.455.83 1.178.75.644-.054.885.053 1.153.588.187.348.535.83.803 1.017s.483.616.483.937c0 .669.83.963 1.313.455.214-.241.214-.375-.027-.455-.402-.161-.456-1.044-.081-1.285.161-.08.268.134.268.482 0 .374.188.749.429.829.268.107.348.348.241.696-.134.428 0 .616.643.83.911.321 1.045.642.429.883-.616.214.348 1.766 1.125 1.766.402 0 .616.187.67.588.054.322.241.616.429.696.482.134.402-.936-.081-1.124-.589-.214-.482-.883.134-1.043.643-.161 1.608.053 1.608.374 0 .107.375.589.804 1.044.455.455.804 1.07.804 1.391 0 .322.134 1.258.294 2.061.268 1.365.241 1.739-.428 4.04-1.983 6.931-1.93 6.503-1.688 15.654.134 5.058.134 5.406-.402 6.262-.295.482-.617 1.338-.751 1.873-.107.535-.455 1.632-.777 2.435-.321.803-.991 2.783-1.527 4.362l-.964 2.89.562.776c.322.401.697 1.284.858 1.926.375 1.445.777 2.007 1.661 2.221.509.134.857.027 1.259-.374.697-.696.697-1.311.027-3.452-.777-2.489-.214-4.656 1.929-7.493.697-.936 1.286-1.98 1.286-2.301 0-.348.322-1.338.697-2.194.643-1.445.67-1.713.429-3.345-.161-1.097-.161-2.274-.027-3.104.161-.91.134-2.542-.107-5.057-.322-3.131-.322-3.934-.027-5.138.214-.776.375-1.686.375-2.007s.375-1.365.804-2.301c1.152-2.382 1.339-4.442.562-5.941-.535-.99-.562-1.284-.321-2.301.161-.615.241-1.606.134-2.141-.081-.562-.027-1.338.134-1.739.241-.615.402-.723 1.393-.696 1.259 0 2.331-.642 2.867-1.739.188-.401.563-.723.804-.723.536 0 1.232.964.964 1.365-.08.134 0 .455.188.696.214.241.429 1.605.563 3.398.294 4.79.911 9.018 1.634 11.319.455 1.392.67 2.73.67 3.88 0 1.445.161 2.114.83 3.532.456.964.831 2.007.831 2.302s.348 1.311.75 2.221c.429.91.831 2.221.938 2.89.08.669.831 2.649 1.661 4.415a134 134 0 0 1 2.331 5.191c.429 1.097.884 2.114 1.018 2.275.108.133.483 1.097.858 2.14.804 2.355.857 2.435 1.715 2.649.535.134.884.027 1.339-.401.75-.696.831-1.686.268-2.97-.75-1.739-1.179-2.81-2.438-5.967-.67-1.766-1.554-3.854-1.929-4.656-.375-.776-.777-2.114-.884-2.944-.215-1.365-.724-2.917-2.572-7.733-.349-.91-.644-2.221-.644-2.944 0-.695-.187-1.926-.401-2.729-.831-3.131-1.179-5.379-1.474-9.5-.161-2.354-.348-5.084-.456-6.101-.134-1.471-.08-1.792.242-1.792.643 0 1.018 1.23 1.286 4.12.509 5.406.857 8.082 1.098 8.858.161.428.322 2.114.402 3.746.134 3.211.348 3.666 1.608 3.666 1.366 0 1.688-.749 1.581-4.014a108 108 0 0 0-.376-5.807c-.187-2.274-.241-10.007-.053-11.185.053-.428.562-.16.562.321 0 .964.51.857.992-.16.348-.723.67-1.044 1.179-1.097 1.018-.107 1.313.856 1.607 4.896.134 1.9.349 4.255.483 5.218.16.964.348 2.382.455 3.185.081.803.402 2.14.697 2.943.375 1.124.455 1.847.321 2.89-.16 1.285-.107 1.472.456 1.954 1.473 1.204 2.679.321 2.867-2.114.08-1.044-.027-2.034-.322-2.917-.295-.83-.482-2.596-.562-4.897-.081-1.98-.268-4.201-.402-4.924-.188-.883-.188-1.659 0-2.274.134-.509.268-1.846.268-2.944 0-2.007.026-2.06 1.018-3.023.67-.669 1.259-.99 1.768-.99.429 0 1.179-.348 1.768-.83.777-.615 1.206-.803 1.688-.669.697.161 1.313-.348 1.93-1.525.214-.402.482-.562.964-.509 2.17.295 2.519.214 2.599-.535.054-.481.295-.749.724-.856.375-.107 1.071-.455 1.607-.803.992-.669 2.304-1.043 5.761-1.632 5.626-.963 7.207-1.338 9.779-2.301.751-.268 1.93-.616 2.653-.776 2.036-.455 3.965-1.338 4.984-2.302a167 167 0 0 0 4.903-4.87c.911-.936 1.875-1.819 2.143-1.98.295-.134 1.206-.91 2.063-1.686 2.117-1.953 3.001-2.381 4.529-2.167 1.821.241 2.759-.107 3.295-1.204.268-.482.482-1.258.482-1.659 0-1.071.885-2.65 1.796-3.185.401-.241 1.205-.508 1.741-.615.858-.161 1.125-.402 1.849-1.632.455-.803 1.072-1.633 1.393-1.847.724-.508 1.769-.508 2.465-.027.295.188 1.259.616 2.117.937.884.321 1.929.883 2.358 1.231.991.829 1.045.829 2.491-.027.992-.562 1.287-.615 1.769-.375.697.402 1.447-.107.777-.535-.322-.187-.322-.321-.08-.562.696-.695 4.903.643 6.135 1.927.402.428.884.776 1.045.776s.59.294.938.669.777.669.991.669c.188 0 .831.482 1.394 1.044.589.588 1.607 1.284 2.25 1.578.67.295 1.34.803 1.527 1.097.268.562 1.045 1.124 3.752 2.837.696.428 2.036 1.311 2.974 1.927 6.618 4.334 11.842 7.305 12.887 7.305 1.126 0 .349-1.285-1.473-2.489-2.626-1.739-8.092-6.984-10.53-10.088-1.795-2.301-3.858-5.191-3.858-5.405 0-.107-.59-1.097-1.34-2.194-.724-1.098-1.34-2.114-1.34-2.248 0-.161-.295-.616-.616-1.044-1.34-1.605-2.867-4.522-2.867-5.459.027-.802.295-1.177 2.197-2.916 5.171-4.79 8.788-8.858 8.788-9.821 0-.749 5.332-6.476 6.056-6.502.375 0 1.447-1.151 1.447-1.552 0-.161.455-.616 1.018-.99 2.733-1.847 6.484-5.539 6.484-6.449 0-.161.348-.669.777-1.151s.723-1.044.67-1.231c-.081-.16.294-.856.803-1.498.536-.643 1.126-1.579 1.34-2.034.214-.482.536-.883.67-.883.161 0 .295-.161.295-.375s.428-.883.937-1.498c.51-.616.938-1.204.938-1.311s.295-.348.67-.509c.348-.16.724-.615.831-1.017s.643-1.123 1.205-1.632c.59-.535 1.045-1.097 1.045-1.284 0-.295 1.019-1.606 5.038-6.396.911-1.097 1.661-2.14 1.661-2.354 0-.188.241-.723.536-1.151.294-.455.535-.99.535-1.204s.429-1.231.938-2.248c.509-1.044.938-2.034.938-2.221 0-.562 1.768-4.87 2.653-6.529.455-.803 1.071-1.713 1.366-1.98.295-.268.536-.696.536-.964 0-.267.134-.562.295-.669.16-.08.509-.669.803-1.284.295-.589.804-1.632 1.179-2.301.349-.669.67-1.419.67-1.686 0-.535.938-2.515 1.474-3.131.509-.589 2.009-4.469 2.009-5.191 0-.348.242-.937.536-1.311.295-.348.67-1.312.831-2.088s.643-2.033 1.045-2.782c.375-.723.857-1.954 1.045-2.676.187-.75.482-1.954.67-2.676.214-.749.509-1.954.696-2.676 1.179-4.576 2.224-8.001 2.572-8.349.161-.16.376-1.177.456-2.274.08-1.071.348-2.623.589-3.426s.536-2.247.67-3.211c.349-2.435.616-3.452 1.447-5.164.375-.83.697-1.686.697-1.9s.321-.696.723-1.07c.643-.616.67-.723.348-1.472-.294-.723-.268-.91.108-1.338.268-.294.509-1.07.535-1.82.134-1.953.456-3.023.992-3.318.616-.321.643-.856.134-1.284-.295-.268-.322-.509-.107-1.124.187-.562.187-.883-.054-1.177-.375-.455-.107-2.489.536-3.987.643-1.445.938-3.372.563-3.372-.456 0-.349-.83.16-1.392.456-.508.429-.535-.16-.99-.617-.455-.617-.508-.188-1.338.241-.454.375-.963.268-1.123-.08-.161.107-.455.429-.696.509-.348.536-.562.402-1.793-.134-1.07-.081-1.499.214-1.793.723-.749.804-1.525.214-2.274q-1.084-1.365 0-1.044c.75.241 1.072-.294.697-1.124-.214-.508-.188-.829.134-1.498 1.152-2.409 1.125-2.302.67-2.81-.617-.696-.59-1.391.08-1.391.295 0 .536-.188.536-.402 0-.294-.188-.375-.616-.267-.402.107-.751.026-.965-.241-.429-.509-.187-.964.456-.803.241.08.75.027 1.125-.107l.643-.241-.589-.321c-.456-.241-.563-.482-.429-.937a1.2 1.2 0 0 0-.268-1.043c-.724-.696-.938-1.606-.509-1.927.348-.267.321-.428-.161-1.284-.67-1.178-.723-1.793-.161-1.793.59 0 .509-1.231-.134-1.873-.589-.589-1.205-.696-1.473-.268-.322.509-.724.268-.563-.348.322-1.07.455-2.595.214-2.595-.107 0-.348.133-.509.294-.187.187-.375-.08-.643-.963-.294-1.017-.536-1.311-1.286-1.633-.67-.267-.857-.508-.75-.883.08-.374 0-.455-.375-.374-.348.107-.509 0-.509-.321 0-.268-.295-.75-.643-1.071-.804-.722-1.688-3.532-1.286-3.933.187-.188.053-.616-.402-1.311-.536-.803-.751-1.552-.884-3.292-.134-1.231-.322-2.462-.483-2.729-.134-.295-.348-.99-.455-1.552-.081-.589-.349-1.311-.563-1.606-.214-.294-.375-.829-.375-1.15s-.241-.99-.536-1.472-.536-1.151-.536-1.472-.643-2.114-1.447-4.014c-1.795-4.228-3.027-8.402-3.268-11.051-.108-1.178-.429-2.622-.804-3.452-.349-.776-.643-1.713-.643-2.06 0-.589-3.778-8.215-4.823-9.741-.67-.99-2.813-5.753-3.43-7.679-.348-1.044-1.152-2.436-2.116-3.72-1.447-1.927-2.09-2.863-3.189-4.763-.241-.455-.991-1.499-1.688-2.328a35 35 0 0 1-2.143-3.024c-.483-.803-1.126-1.766-1.394-2.087-.294-.321-.589-.883-.696-1.258-.081-.374-.456-1.043-.804-1.445-.322-.428-.616-.91-.616-1.097 0-.16-.617-.91-1.367-1.632l-1.339-1.338.107-1.927c.08-1.579.241-2.114.857-3.077.429-.642 1.179-1.927 1.661-2.863.483-.937 1.072-1.927 1.286-2.168.376-.428 1.287-2.408 2.921-6.422.348-.802.884-1.9 1.179-2.408.348-.535.589-1.391.589-2.007.027-.589.188-1.365.402-1.74.643-1.096.509-2.97-.268-4.013-.884-1.204-1.607-1.579-3.054-1.606-1.501 0-3.108.964-6.029 3.666-1.848 1.713-2.277 1.954-3.617 2.221-1.849.348-3.215.937-3.403 1.472-.241.615-3.242 2.274-3.778 2.087-.294-.134-.375-.08-.214.16a.436.436 0 0 1-.161.59c-.669.428-1.795.24-2.572-.402-.402-.321-1.018-.75-1.366-.936-.992-.536-4.555-3.506-7.02-5.86-1.26-1.205-2.438-2.195-2.626-2.195s-.857-.482-1.474-1.044a54 54 0 0 0-4.742-3.906 67 67 0 0 1-2.679-2.141c-2.68-2.275-3.403-2.81-4.18-3.158-.804-.32-2.465-1.498-4.421-3.077-.616-.455-1.259-.856-1.447-.856s-.965-.508-1.688-1.15c-.75-.616-2.84-1.9-4.662-2.837s-3.59-1.927-3.939-2.194c-.348-.295-.857-.509-1.125-.509s-.563-.134-.643-.267c-.241-.375-5.386-3.72-6.565-4.255-.509-.24-1.5-.776-2.197-1.177-.669-.402-1.956-.99-2.813-1.285s-1.849-.722-2.17-.963c-.349-.214-1.742-.75-3.081-1.178-1.34-.428-3.537-1.31-4.877-1.953-1.366-.669-3.671-1.606-5.171-2.14-1.501-.51-3.644-1.365-4.769-1.9-1.126-.509-2.278-.937-2.572-.937-.268 0-.938-.214-1.501-.482-.831-.428-2.438-.963-9.056-2.997-.456-.16-.992-.267-1.233-.267-.214 0-1.366-.295-2.518-.67-1.152-.374-2.84-.802-3.698-.963-.884-.16-2.17-.481-2.84-.695-.67-.241-1.554-.455-2.009-.482-.429-.027-1.956-.348-3.35-.723-1.393-.374-2.974-.776-3.51-.856-1.929-.348-3.724-1.579-3.161-2.167.696-.696-.081-1.204-1.206-.776-.321.133-.375.267-.161.508.215.24.108.455-.375.776-.857.535-.991.294-.804-1.418.134-1.392-.187-1.766-.911-1.044-.375.375-1.955.482-2.384.134-.643-.482-.348-.722.857-.722.67 0 1.206-.134 1.206-.268 0-.16-.214-.268-.482-.268s-.617-.133-.804-.32c-.322-.322-.616-.215-2.304.642-.402.214-.697.053-1.501-.723-.83-.803-1.152-.963-1.715-.83-.509.134-.75.027-.964-.4-.295-.51-.349-.51-.777-.135-.268.241-.536.375-.616.295-.081-.08-.777-.214-1.528-.268-1.125-.107-1.473-.027-1.822.401q-.884 1.005-.884 0c0-.294.134-.535.268-.535.563 0 .241-.535-.429-.695-.723-.188-1.634.374-.964.615.375.134.455.883.08.883-.134 0-.375-.16-.536-.375-.482-.588-3.027-.749-4.421-.294-.964.321-1.339.348-1.902.08-.482-.214-.777-.214-.991 0-.215.214-.429.188-.804-.026-.429-.268-.563-.241-.777.133-.188.322-.482.402-1.125.295-.643-.08-1.26.053-2.09.481-.938.482-1.581.616-3.189.59-1.098-.028-2.224.08-2.465.213-.295.16-.509.134-.616-.053-.107-.16-.482-.215-.857-.107-.376.08-.831.026-1.045-.161-.295-.24-.375-.214-.375.107 0 .615-1.421 1.525-2.358 1.525-.456 0-.911.134-1.018.295-.081.16-.51.24-.938.133-.59-.107-.831-.026-1.045.375-.215.402-.563.535-1.286.535a8.6 8.6 0 0 0-1.876.16c-.563.108-1.018.054-1.313-.187-.348-.294-.455-.294-.562-.026-.268.803-.965 1.177-1.876 1.017a3.2 3.2 0 0 0-1.742.267c-.482.268-1.098.375-1.58.268-.509-.107-1.099.026-1.769.374-.536.295-1.232.536-1.527.536s-1.072.16-1.742.374-2.706.589-4.528.83c-1.848.24-3.751.615-4.233.802-1.233.536-6.136.723-6.511.268-.161-.187-.536-1.525-.83-2.97-.322-1.579-.804-3.024-1.179-3.586-1.501-2.22-1.581-2.649-1.099-5.245.777-4.335.536-5.78-1.179-6.663-1.098-.562-2.572-.481-4.287.215m38.074 49.478c1.072 0 1.875.16 2.17.428.295.24.804.348 1.474.267.83-.107 1.125 0 1.607.509.697.722 1.876.803 2.358.16.322-.455.375-.455.858-.026.294.267.75.374 1.232.294.67-.134.724-.08.724.75.026.855.053.882.401.4.804-1.043.858-.561 1.072 8.403.161 6.716.643 13.888.965 14.503.375.696 1.473.883 2.25.375.643-.428.67-.562.643-3.05-.026-1.419.108-3.56.242-4.737.268-1.9.643-9.366.696-13.567.027-.83.107-1.605.215-1.712.107-.107.562-.027.991.133.643.268.911.268 1.554-.08.723-.348.831-.348 1.206.027.402.375.509.375 1.232-.053 1.126-.67 1.581-.402 1.769 1.123.294 2.114.643 11.935.803 22.13.081 5.271.295 10.623.429 11.908.214 1.712.214 2.863-.027 4.468-.375 2.623-.107 3.693 1.286 5.085 1.554 1.578 2.814 1.766 3.296.508.295-.803.054-1.66-.831-2.863-.696-.964-.696-1.044-.375-2.462.268-1.097.349-6.181.375-20.658l.027-19.213.59-.642c.348-.348.589-.883.535-1.204-.053-.535-.026-.535.295-.134.616.776 1.661.883 2.331.214.322-.321.59-.535.617-.482.428.857.75 1.178 1.232 1.231.375.054.563.295.563.67.08 2.996.348 6.636.562 7.358.456 1.391 2.68 2.194 3.457 1.258.214-.241.375-1.606.428-3.666.054-2.355.242-3.64.59-4.55l.482-1.257.831.508.83.482.751-.776c.669-.722.857-.776 2.197-.669 1.741.16 2.197.482 2.197 1.66 0 1.39 1.42 4.575 2.17 4.79 1.259.4 2.09-.964 1.661-2.757-.321-1.258.161-3.773.777-4.148.322-.214.643-.187 1.152.08.643.348.751.348 1.099-.107.375-.535 1.447-.642 4.394-.347 2.197.214 4.582.856 8.976 2.435 1.929.695 4.34 1.552 5.359 1.9 1.848.615 3.242 1.15 4.822 1.873.456.187 1.581.642 2.546 1.017 2.009.749 11.575 5.592 15.54 7.867.509.294 1.661.963 2.545 1.471 6.431 3.693 12.111 7.68 19.292 13.594 1.634 1.338 3.724 3.05 4.689 3.853 2.706 2.194 7.475 6.984 7.77 7.787.161.401.161.883.053 1.097-.321.562-4.956 4.389-5.305 4.389-.161 0-.455-.188-.643-.402-.616-.722-1.206-.428-3.617 1.9-4.474 4.282-8.306 7.626-10.449 9.098a142 142 0 0 0-4.287 3.051c-1.179.883-2.68 1.926-3.35 2.328-.669.374-1.634.963-2.143 1.311-.509.321-1.768.883-2.813 1.204-1.019.321-2.117.749-2.412.937-.482.321-1.634.428-7.904.776-3.858.214-6.671.588-7.047.909-.214.161-.589.241-.83.134-.241-.08-1.072.107-1.849.428-.75.348-1.742.589-2.143.589-.429 0-1.233.161-1.849.375-.59.214-1.447.374-1.903.374-.75 0-1.929.295-3.268.83-1.447.562-3.242 1.043-3.912 1.043-.375 0-.858.161-1.018.375-.188.214-1.796.99-3.591 1.739-1.795.776-3.563 1.552-3.938 1.793-.375.214-1.528.803-2.573 1.311-1.044.509-2.063 1.124-2.25 1.365-.215.214-.938.696-1.635 1.07-.723.348-1.929 1.178-2.733 1.82-.803.642-1.821 1.365-2.25 1.579-.429.241-.965.615-1.152.856-.215.241-.911.723-1.608 1.07-.67.322-2.277 1.151-3.617 1.847-1.313.669-2.545 1.231-2.706 1.231s-.563.294-.911.669c-.349.374-.884.669-1.206.669-.295 0-1.045.374-1.661.802-.616.455-1.688.91-2.492 1.071-.777.16-1.741.562-2.197.936-.509.428-.991.616-1.286.536-.322-.108-1.393.347-2.84 1.204-1.313.722-2.519 1.338-2.706 1.338-.188 0-.617.321-.992.722-.562.589-.777.669-1.259.428-.884-.374-3.697.616-4.582 1.633-.616.722-.723.749-1.554.481-.482-.187-1.152-.241-1.5-.16-.482.133-.67.026-.804-.321-.643-1.9-1.849-3.988-3.001-5.192-.75-.802-1.447-1.793-1.554-2.247-.321-1.472-1.474-3.211-3.51-5.245-1.5-1.472-2.277-2.542-3.027-4.094a13.6 13.6 0 0 0-5.091-5.566c-1.233-.749-1.501-1.151-2.117-3.184-.589-1.874-2.197-3.747-4.341-5.058-3.188-1.953-3.429-2.167-3.804-3.666-.402-1.525-1.822-3.826-3.135-5.057-.482-.455-1.286-1.472-1.822-2.275a28.5 28.5 0 0 0-2.385-2.997c-1.232-1.311-1.42-1.632-1.259-2.274.107-.402.268-.883.375-1.017.482-.616 1.447-4.977 1.554-6.824.107-1.98-.321-4.923-.804-5.539-.134-.187-.83-.401-1.5-.508-.697-.107-1.474-.294-1.742-.428-.562-.295-.535-.91.188-3.96 1.313-5.567 1.125-9.125-.536-10.972-.536-.562-.991-1.418-1.072-1.926-.08-.482.107-2.248.402-3.934.322-1.686.563-4.094.563-5.352-.027-2.542-.214-2.916-2.224-4.415-.884-.642-1.018-.856-.884-1.472.107-.374.214-.936.241-1.23.027-.349.295-.562.723-.616.376-.054.858-.268 1.099-.482.214-.187.75-.348 1.206-.32.428 0 1.634-.215 2.652-.536 3.001-.883 4.555-1.177 5.305-.99.429.107.911.027 1.367-.268.375-.267.938-.401 1.259-.32.295.08 1.233-.081 2.063-.375 1.313-.455 1.661-.482 2.546-.215.803.268 1.152.268 1.554.027.268-.187.803-.32 1.152-.32.375 0 .964-.135 1.339-.295.456-.214 1.447-.241 3.323-.08 2.143.214 2.733.187 3.001-.134.294-.321.402-.295.67.08.241.321.803.455 2.036.482m146.051 64.034c.429.374.992.669 1.26.669.696 0 3.242 2.863 3.429 3.826.081.482.429 1.151.777 1.525.322.375.697 1.017.804 1.472.107.428.429 1.124.697 1.525.295.402.616 1.338.723 2.088.161 1.07.429 1.525 1.286 2.328.724.695 1.367 1.712 1.956 3.077.483 1.151 1.045 2.221 1.233 2.382.214.16.375.776.375 1.364 0 1.071 1.152 3.693 1.608 3.693.16 0 .267.187.267.455 0 .241.295.936.643 1.525.349.616.724 1.392.831 1.766.107.348.67 1.311 1.233 2.141.535.803 1.071 1.793 1.179 2.221.107.401.294.803.428.883s.241.348.241.615c0 .669.992 2.837 1.474 3.238.214.188.402.535.402.803s.429 2.087.964 4.041c.51 1.98 1.045 4.201 1.179 4.95.108.749.349 1.632.509 1.927.161.294.295.936.295 1.391s.188 1.258.402 1.793c.214.508.402 1.552.402 2.274 0 .75.161 1.659.375 2.034.456.883 1.045 3.773 1.099 5.405.026.669.241 2.703.482 4.549s.589 4.817.75 6.61c.268 2.81.402 3.291.831 3.452 1.018.321 1.688 3.05.723 3.05-.536 0-1.072 1.927-1.232 4.442-.081 1.392-.268 2.596-.402 2.676-.107.08-1.34.241-2.706.402-3.055.294-3.939.588-5.815 1.819-.83.535-2.143 1.258-2.947 1.606-2.331.99-3.59 1.685-3.831 2.087-.108.187-.375.348-.563.348s-.616.294-.965.642c-.321.375-.991.749-1.446.856-.456.08-1.26.375-1.769.642-.509.268-1.393.643-1.956.803-.562.188-1.152.535-1.339.83-.215.321-.751.562-1.608.669-.697.107-1.34.294-1.42.401-.08.134-.482.241-.911.241-.509 0-.884.187-1.072.535-.187.348-.562.535-1.098.535-1.554 0-4.582 2.703-4.904 4.308-.08.562-.428 1.312-.723 1.686-.295.375-.697 1.258-.911 1.954-.75 2.649-2.438 7.064-2.894 7.572-.241.295-.562.991-.67 1.552-.241.964-1.714 3.506-2.545 4.309-1.42 1.364-3.671 3.237-3.912 3.237-.107 0-1.098.723-2.197 1.606s-2.197 1.606-2.492 1.606c-.268 0-1.232.347-2.143.776-.884.401-1.929.883-2.304 1.07-.375.16-.858.401-1.072.508-.214.134-1.233.509-2.224.857-1.661.535-1.876.562-2.277.16-.349-.294-.777-.374-1.474-.241l-1.018.161.589-1.017.616-1.017-1.152.188c-.643.08-1.527.374-2.009.615-.456.241-1.42.535-2.17.669-3.242.535-3.886.722-6.029 1.873-1.259.669-2.894 1.392-3.644 1.659-.777.241-1.608.696-1.875 1.017-.295.294-1.287.936-2.251 1.418-1.447.749-1.902 1.151-2.706 2.462-.536.856-1.072 1.846-1.179 2.221-.429 1.525-1.474 2.81-4.1 5.111-1.125.99-2.384 1.017-3.751.107-.536-.375-1.125-.669-1.286-.669-.455 0-7.609-6.797-10.422-9.928a20 20 0 0 0-2.332-2.194c-.696-.562-1.339-1.257-1.42-1.552-.107-.294-.669-.829-1.286-1.231-.616-.374-1.581-1.097-2.143-1.578-.536-.509-1.259-.91-1.554-.91-.322 0-.777-.295-1.072-.616-.268-.348-1.072-.856-1.768-1.124-.697-.267-1.581-.722-1.956-.99-1.688-1.284-2.76-1.819-3.242-1.686-.375.134-.563 0-.777-.508-.134-.375-.375-.696-.509-.696-.483 0-1.903-1.391-1.903-1.846 0-.268-.241-.696-.536-.963-.643-.562-.696-1.365-.134-1.579.268-.08.402-.509.402-1.231 0-.589.108-1.07.268-1.07.134 0 .483-.536.777-1.178.268-.642.831-1.391 1.206-1.632.375-.268.697-.616.697-.803s.214-.615.482-.963c.67-.883 1.393-2.89 1.393-3.88 0-.535.241-1.044.67-1.445.536-.509.643-.803.509-1.579s-.027-1.07.402-1.472c.322-.294.563-.722.563-.99 0-.267.455-1.364 1.045-2.462.562-1.097 1.286-2.89 1.607-3.96.858-2.756 1.26-3.479 2.331-4.255.509-.374 1.42-1.07 2.037-1.552.589-.454 1.286-.856 1.554-.856.857 0 2.116-1.284 2.304-2.355.134-.776.643-1.445 2.411-3.13 1.233-1.178 2.251-2.275 2.251-2.462 0-.375 3.51-3.961 4.984-5.111.616-.482 1.178-1.124 1.286-1.445.08-.348.509-.83.964-1.071.483-.267 1.018-.909 1.233-1.471.562-1.338 2.009-3.559 2.304-3.559.134 0 .188-.241.08-.509-.107-.348.054-.669.563-1.07.375-.294.804-.482.938-.401.348.214 1.313-.402 1.313-.83 0-.535.75-1.204 1.393-1.204.697 0 1.554-.723 1.554-1.338 0-.241.295-.723.67-1.07s.67-.776.67-.964.482-.829 1.071-1.418c.59-.589 1.072-1.204 1.072-1.365 0-.187.482-.909 1.072-1.605.589-.696 1.072-1.472 1.072-1.686 0-.241.214-.589.482-.776s.697-.963.938-1.686c1.259-3.826 1.527-4.897 1.527-5.94 0-.883.134-1.231.563-1.472.294-.187.803-.83 1.098-1.418.295-.589 1.179-1.74 1.983-2.569.83-.883 1.822-2.355 2.411-3.586.563-1.124 1.313-2.247 1.635-2.462.348-.24.616-.669.616-.99 0-.374 1.072-1.525 3.376-3.612 1.849-1.659 3.671-3.532 4.073-4.148a34 34 0 0 1 1.848-2.408c.643-.696 1.152-1.418 1.152-1.606 0-.428 6.19-6.047 6.645-6.047.134 0 1.635-1.392 3.403-3.077 1.742-1.686 3.269-3.078 3.376-3.078.08 0 .321-.187.509-.401s.536-.401.777-.401 1.152-.482 2.036-1.071c.885-.588 1.796-1.07 2.037-1.07s.75-.294 1.152-.669.884-.669 1.072-.669c.214 0 .509-.187.696-.401.188-.214.724-.402 1.179-.402.643 0 1.179-.294 2.09-1.15 1.795-1.633 2.733-2.302 3.885-2.73 1.367-.482 1.367-.482 2.277.268M59.287 136.668c0 .455-.59.375-.75-.107-.053-.187.08-.321.322-.321.24 0 .428.188.428.428m-1.607 1.873c0 .215-.107.375-.241.375-.295 0-.59-.696-.376-.91.242-.241.617.081.617.535m2.411 1.044c0 .348-.107.723-.268.803-.402.241-.321 1.204.107 1.204.188 0 .51-.187.697-.401.59-.696.804-.429.75.936-.053.937.054 1.472.375 1.766.349.375.375.562.134.964-.268.428-.24.562.134.776.349.187.456.562.429 1.391-.027.856.188 1.499.938 2.703.562.883.991 1.793.991 2.033 0 .241.241.883.536 1.472s.536 1.311.536 1.632c0 .348.804 1.579 1.875 2.89 1.019 1.258 1.93 2.596 1.983 2.997.16.776 1.661 2.516 2.197 2.516.188 0 .563.428.884.936.349.589.75.937 1.099.937.348 0 .643.267.804.669.134.374.562.803.938.99.348.16.723.508.803.776.134.401 1.769 1.846 2.117 1.846.295 0 2.143 1.392 2.492 1.847.187.294.697.588 1.098.695.43.081 1.474.91 2.465 1.927 1.635 1.659 2.6 2.408 4.77 3.746.509.321 1.045.75 1.178.99.134.241.644.589 1.126.803 2.599 1.07 8.842 6.503 14.977 13.005 2.573 2.703 2.733 3.131 2.385 5.914a54 54 0 0 1-.616 3.585c-.188.723-.322 1.74-.295 2.195 0 .669-.161.99-.777 1.445-.589.428-.777.749-.777 1.471 0 1.204-2.251 5.593-3.242 6.342-.429.294-.777.749-.777 1.017 0 .241-.214.722-.482 1.07s-.75 1.178-1.072 1.847-1.179 1.873-1.93 2.676c-.722.802-1.339 1.659-1.339 1.926 0 .749-.536.857-1.366.241-.402-.294-.965-.562-1.233-.562s-.83-.348-1.286-.803c-.429-.428-1.474-1.418-2.277-2.221-2.063-2.033-2.974-2.542-4.207-2.354-.884.133-1.045.294-1.286 1.177a2.96 2.96 0 0 1-1.125 1.606c-.483.321-.965.776-1.072.99s-.214 2.997-.214 6.154c-.027 5.619-.349 8.483-1.019 9.312-.16.214-.375.937-.482 1.606-.08.695-.375 1.98-.616 2.863a93 93 0 0 0-.965 3.559c-.294 1.07-.777 2.328-1.098 2.756-.402.562-.51 1.017-.402 1.472.134.455.027.936-.268 1.391-.322.482-.536 1.579-.67 3.292-.107 1.418-.348 3.05-.509 3.612-.348 1.151-.214 5.646.188 7.6.267 1.177.75 2.381 1.554 3.746.643 1.07 2.01 4.469 2.01 4.95 0 .83 1.178 2.703 2.946 4.683.992 1.097 2.064 2.515 2.358 3.104.59 1.151 3.055 3.559 5.627 5.486.83.615 1.956 1.471 2.465 1.846.509.401 1.232.856 1.58 1.044.35.187 1.34.909 2.225 1.578 1.795 1.392 1.58 1.258 5.841 4.014 1.688 1.097 3.617 2.569 4.287 3.292.911.963 2.089 1.739 4.688 3.077 4.207 2.141 6.377 3.398 9.914 5.699 2.304 1.499 6.029 4.389 7.02 5.433.161.187 1.42 1.418 2.76 2.756 1.366 1.311 2.92 2.943 3.429 3.612.536.669 1.527 1.766 2.171 2.462 1.366 1.445 4.045 5.245 4.045 5.78 0 .187-.268.722-.562 1.204-.59.856-3.216 2.328-4.984 2.756-.402.107-1.286.589-1.929 1.097-.643.482-1.366.883-1.608.883-.241 0-.857.348-1.366.776-1.018.83-3.001 1.9-3.537 1.9-.187 0-1.072.375-1.956.803-.884.455-1.741.803-1.956.803-.187 0-.696.187-1.152.401-.723.375-.857.375-1.366 0-.349-.214-.911-.401-1.313-.401-1.072 0-2.814-.696-4.635-1.847-.911-.562-2.278-1.311-3.028-1.632-.777-.321-1.581-.856-1.769-1.177-.214-.321-1.152-.99-2.089-1.499-1.501-.776-2.814-1.686-5.198-3.532-.322-.241-1.286-.856-2.171-1.365-1.982-1.124-6.27-4.281-7.984-5.913-.697-.669-1.42-1.231-1.608-1.231-.16 0-1.018-.669-1.902-1.499a42 42 0 0 0-2.063-1.819c-.59-.429-6.163-6.289-9.86-10.356-1.5-1.686-3.403-4.041-4.207-5.272-.804-1.204-1.527-2.194-1.634-2.194s-.617-.615-1.126-1.391c-.509-.749-1.527-2.061-2.223-2.863-1.099-1.258-4.127-5.54-6.216-8.777-4.314-6.744-7.637-12.738-8.467-15.306-.483-1.552-1.099-3.078-1.688-4.255-.349-.696-.75-1.873-.938-2.596-.188-.749-.723-2.114-1.206-3.077-1.286-2.489-3.188-8.215-4.474-13.513-1.206-4.817-1.233-5.084-.911-5.807.134-.348.027-.535-.482-.722-.644-.241-.67-.348-.59-1.954.027-.936.16-1.9.268-2.167.107-.241.053-.643-.134-.857-.429-.508-.08-.99.563-.802.616.214.696-.348.08-.589-.268-.107-.375-.348-.268-.776.08-.321.054-.696-.107-.776-.51-.321-.295-.99.241-.803.697.214 1.045-.401.482-.803-.268-.187-.455-.428-.455-.535 0-.374 1.152-1.472 1.527-1.472.188 0 .348-.133.348-.294 0-.134-.134-.187-.268-.107-.401.241-1.071-.375-.884-.803.08-.214-.134-.695-.428-1.097-.643-.829-.724-1.338-.215-1.632.51-.294 1.018-1.9.697-2.087-.134-.107-.482-.081-.777 0-.429.134-.536.053-.536-.402 0-.508.134-.562 1.152-.481.965.08 1.125 0 1.125-.455 0-.375-.214-.562-.723-.616-.857-.107-.857-.16-.456-1.364.242-.643.242-.937 0-1.178-.428-.428-.375-1.204.242-2.863.696-1.9.723-2.756.053-2.569-.59.188-1.232-.428-1.661-1.579-.241-.642-.214-.829.107-1.097.617-.428.536-.776-.268-1.15-.696-.295-.696-.321-.214-.857.482-.535.482-.562 0-.909-.429-.348-.429-.375.295-.455.964-.107.991-.776.026-1.231a1.7 1.7 0 0 1-.884-1.124c-.107-.428-.294-.856-.428-.937-.322-.214-.322-1.391.026-1.605.456-.268.295-.99-.24-1.124-.43-.107-.564-.401-.617-1.392-.054-.669.08-1.552.268-1.953.402-.91.16-2.007-.51-2.381-.562-.295-.642-.776-.267-1.526.83-1.632.884-1.9.616-2.676-.16-.455-.187-1.257-.053-1.926.107-.616.107-1.472 0-1.9-.322-1.097-.108-8.269.24-8.617.161-.16.295-.588.295-.909 0-.348.188-1.017.43-1.472.24-.455.374-1.044.294-1.311-.215-.83 1.072-5.7 1.929-7.279.429-.802.723-1.685.67-1.98-.188-.669.321-1.953.777-1.953.428 0 1.098-2.863.83-3.559-.08-.214.054-.723.295-1.097.322-.482.402-.964.295-1.606-.16-.776-.054-1.07.616-1.819.965-1.098 2.974-5.272 2.974-6.182 0-.348.402-1.15.884-1.793 1.313-1.739 2.117-3.211 1.983-3.585-.08-.188 0-.348.188-.348.428 0 1.768-.883 1.768-1.178 0-.133.375-.24.804-.24.723 0 .804-.054.643-.669-.188-.803.321-.91.857-.214.295.455.349.428.617-.268.348-.856.83-.722.83.214m289.906 66.764c0 .749-.134 1.123-.509 1.311-.589.321-.83.134-.83-.616 0-.642.696-1.766 1.098-1.766.134 0 .241.482.241 1.071m-2.947 2.542c0 .214-.241.401-.536.401-.536 0-.696-.294-.348-.615.321-.348.884-.188.884.214m2.09 3.933c.402.402.429 1.954.027 2.569-.241.375-.215.856.134 2.034.375 1.284.402 1.712.134 2.328-.322.803-.616.963-.911.481-.107-.16-.349-.214-.536-.133-.214.08-.804 0-1.34-.134-.643-.187-1.232-.187-1.715-.027-.535.187-.937.161-1.446-.134-.59-.294-.724-.535-.724-1.418 0-.856.134-1.151.804-1.659.455-.321.804-.749.804-.937 0-.187.294-.508.67-.669.375-.16.669-.428.696-.588 0-.402 2.144-1.98 2.68-2.007.214-.027.535.107.723.294m-304.268 13.46c0 .134-.133.294-.294.348s-.295-.107-.295-.348.134-.401.295-.348.294.214.294.348m-.723 5.485c.08.134.107.375 0 .536-.214.348-.938.026-.938-.428 0-.429.697-.509.938-.108m300.383 1.9c.026.509.16 1.178.321 1.499.697 1.284.295 5.833-.884 9.713-.214.669-.509 1.74-.697 2.409-.214.669-.562 1.552-.804 2.007-.241.428-.509 1.498-.589 2.381-.107 1.178-.322 1.739-.831 2.275-.348.374-.723 1.177-.83 1.766-.241 1.445-1.206 3.88-1.795 4.575-.268.295-.483.723-.483.964 0 .214-.241.722-.536 1.097-.294.375-.535 1.017-.535 1.472 0 .535-.295 1.07-.938 1.685-.67.669-1.018 1.285-1.206 2.302-.161.776-1.313 3.425-2.572 5.913-1.233 2.489-2.251 4.656-2.251 4.817 0 .294-2.116 4.415-3.027 5.941a33 33 0 0 1-1.796 2.461c-1.259 1.579-1.982 2.542-3.804 5.031-.59.803-1.956 2.382-3.028 3.479-1.045 1.097-2.009 2.274-2.117 2.569-.107.321-.562.749-.991.936-.455.187-1.366.856-2.01 1.499-.643.642-1.339 1.15-1.527 1.15-.161.027-1.152.937-2.197 2.061-2.679 2.916-3.912 4.094-4.314 4.094-.187 0-.669.401-1.098.91-.402.481-1.018.99-1.367 1.07-.321.107-.777.589-.991 1.097-.375.91-1.688 1.739-3.376 2.114-.402.08-.777.375-.857.669-.108.401-.375.482-1.635.508h-1.527l-1.259-1.9c-.697-1.07-1.635-2.649-2.09-3.532a455 455 0 0 0-2.09-3.987c-.67-1.338-1.233-2.569-1.233-2.783 0-.187-.428-.749-.964-1.204-.536-.481-1.42-1.766-1.983-2.89-.563-1.097-1.206-2.167-1.447-2.355-.241-.214-.428-.481-.428-.642 0-.16-.67-1.15-1.474-2.221-.804-1.07-1.474-2.194-1.474-2.462 0-.267-.348-.829-.804-1.257-.428-.402-.857-1.071-.937-1.499-.107-.401-.536-1.204-.965-1.739s-.777-1.124-.777-1.311c0-.161-.375-.642-.83-1.097-.483-.429-1.072-1.285-1.367-1.9-.268-.642-.804-1.285-1.206-1.472-.616-.294-1.259-1.097-1.848-2.301-.108-.188-.509-.509-.911-.723-.724-.374-.751-.428-.617-2.248.081-1.15 0-1.899-.16-2.033-.885-.535.241-2.007 1.527-2.007.321 0 .67-.187.75-.401.107-.215.348-.402.563-.402s1.286-.482 2.384-1.07c1.099-.589 2.251-1.071 2.546-1.071s1.098-.454 1.795-1.016 2.17-1.472 3.269-2.007c2.813-1.365 10.717-7.118 10.717-7.814 0-.214.429-.803.938-1.338.804-.803.911-1.017.67-1.472s-.161-.642.348-1.15c.348-.321.777-.857.965-1.178.187-.348.75-.722 1.393-.883.589-.16 1.34-.615 1.661-.99.536-.615 1.179-1.07 4.394-3.104.643-.401 1.394-.722 1.688-.722s.724-.214.965-.509c1.447-1.686 1.741-1.9 2.465-1.9.455 0 1.206-.321 1.795-.802.75-.589 1.286-.803 2.117-.803.616 0 1.393-.187 1.714-.428.349-.241 1.287-.482 2.117-.535s1.661-.241 1.876-.429c.375-.294 2.786-.508 5.519-.508.831.027 1.072-.107 1.179-.508.161-.562.991-.723 1.286-.268.215.348 2.01.348 2.01 0 0-.161.294-.214.67-.107.696.187 2.706-.83 4.554-2.301.59-.455 1.287-.803 1.581-.776.59.08 1.688-.428 3.242-1.499.536-.348 1.501-.722 2.171-.829.696-.081 1.286-.348 1.42-.616.187-.294.616-.428 1.554-.428l1.286.027zm-204.141 21.167c.161.133 1.019.321 1.876.374.857.081 2.519.428 3.698.776 5.492 1.579 6.725 1.82 10.449 2.007 2.572.107 4.046.295 4.689.589.509.241 1.366.508 1.875.562.509.08 1.769.294 2.76.482 1.688.294 1.902.294 2.974-.241.643-.321 1.313-.589 1.527-.589.215 0 .617-.187.885-.401.294-.214.964-.402 1.527-.402.536 0 1.125-.16 1.286-.374.482-.562 2.545-1.044 3.537-.803.509.107 1.286.214 1.715.267.455.054 1.955.188 3.349.348 1.795.188 2.679.161 3.081-.053.777-.428 3.483-.803 5.466-.749 1.366.053 2.063.24 3.563.99 1.528.802 1.876 1.097 2.01 1.739.107.508.429.936.911 1.204.429.214.777.535.777.749 0 .188.536.937 1.206 1.659.83.883 1.152 1.445 1.045 1.766-.108.322.214.91.937 1.74.67.749 1.099 1.498 1.099 1.9 0 .374.295.99.643 1.364 1.206 1.258 2.385 5.299 2.626 8.858 0 .214.187 1.07.402 1.873.241.802.509 2.274.643 3.264.107 1.017.402 2.087.616 2.409.241.321.429.909.429 1.284.026.375.187.963.401 1.338.965 1.686.134 3.318-2.277 4.549-.857.428-1.795 1.07-2.09 1.445-.268.375-.857.829-1.286 1.017-.884.374-3.135 1.873-4.126 2.783-.375.321-1.635 1.07-2.813 1.685-1.206.589-2.412 1.312-2.68 1.633-.295.321-1.152.883-1.902 1.231-.777.348-1.795.936-2.278 1.257a37 37 0 0 1-2.652 1.499c-.965.508-2.037 1.124-2.385 1.391-.348.295-.75.509-.884.509s-.75.348-1.366.776a59 59 0 0 1-2.867 1.712c-.965.509-3.162 1.713-4.904 2.676-1.741.937-3.376 1.927-3.644 2.168-.241.241-.616.428-.803.428s-.724.294-1.206.669c-.482.348-1.393.856-2.036 1.07-.67.241-1.662.696-2.278 1.044-.589.348-1.956.936-3.027 1.364-1.822.669-1.983.696-2.599.295-.376-.241-.67-.589-.67-.776 0-.214-.643-1.044-1.394-1.847-4.126-4.334-4.93-5.271-5.251-5.86-.456-.883-1.474-2.355-2.304-3.318-2.867-3.398-4.019-4.977-5.413-7.492-.241-.455-.991-1.499-1.634-2.382-1.5-1.98-3.215-5.111-3.751-6.904-.214-.749-.563-1.632-.75-1.926-.215-.321-.509-1.419-.67-2.435-.456-2.971-1.581-6.904-2.144-7.493-.268-.294-.589-.91-.67-1.338-.107-.455-.482-1.418-.803-2.141-.643-1.418-1.206-3.211-1.849-5.967-.214-.91-.643-2.087-.965-2.595-.348-.562-.509-1.124-.402-1.472.108-.294-.026-.856-.294-1.338-.429-.723-.456-.91-.107-2.06.187-.723.348-1.66.348-2.088 0-.562.214-1.017.75-1.498.509-.455.724-.856.616-1.151-.134-.321.134-.562 1.045-.936.67-.295 1.286-.643 1.367-.803.241-.375 1.42-.375 1.634-.027.081.134.456.268.831.268.562 0 .643-.134.643-.883 0-.509.08-.964.161-1.044.214-.241 3.402.08 3.777.375m69.235 44.553c.214.535.214 1.365-.027 3.024-.187 1.258-.321 2.676-.321 3.131.026 1.097.026 2.542 0 6.502 0 1.686.026 4.148.053 5.486.054 1.418-.214 4.816-.616 8.295-.402 3.238-.857 8.643-1.018 12.042-.268 5.886-.965 11.907-1.393 12.335-.108.107-.188.536-.188.937 0 .455-.321 1.124-.804 1.686-.643.722-.991.91-1.741.883-.643-.027-1.099.16-1.474.562-.67.722-2.519.802-3.456.16-.456-.348-.965-.401-2.037-.267-.937.107-1.714.026-2.304-.214-.509-.214-2.063-.455-3.456-.562-1.554-.107-3.055-.375-3.832-.696-.938-.401-1.875-.535-3.349-.508-1.125 0-2.733-.027-3.537-.081-.804-.053-2.17.027-3.027.161-1.313.214-1.635.187-2.063-.214-.268-.241-.644-.375-.804-.268-.402.241-3.216-.134-3.216-.455 0-.134-.428-1.284-.964-2.515-1.179-2.729-1.045-3.104.831-2.275 1.446.643 2.277.723 2.277.214 0-.668-1.045-3.05-1.983-4.468-.536-.803-1.045-1.713-1.125-2.007a3.8 3.8 0 0 0-.643-1.071c-.241-.294-.884-1.659-1.42-3.023-.724-1.847-1.367-2.917-2.331-4.014-.75-.856-1.447-1.82-1.527-2.194-.081-.375-.563-1.124-1.045-1.686-1.313-1.445-1.206-2.087.589-3.452 2.385-1.846 4.18-3.077 5.332-3.72a38 38 0 0 0 2.411-1.445c2.305-1.498 8.387-5.218 8.548-5.218.08 0 .777-.374 1.554-.829s3.054-1.739 5.037-2.863c1.982-1.097 3.804-2.141 4.019-2.328 1.554-1.338 17.335-9.714 18.3-9.741.268-.026.589.268.75.696m43.539 19.641c.215.161.376.428.376.589 0 .134.294.535.696.883.563.535.858.615 1.715.482.857-.134 1.099-.081 1.233.267.107.268.348.375.616.295s.589.16.884.695c.268.428.857.964 1.366 1.178.483.187 1.528.99 2.305 1.793.83.802 1.661 1.418 1.982 1.418.402 0 .858.428 1.42 1.338 1.474 2.274 1.983 2.836 2.519 2.676.75-.241.831.214.241 1.418-.428.829-.723 1.124-1.179 1.124-.589 0-2.545 1.846-2.545 2.381 0 .134-.724.803-1.608 1.472-1.179.91-1.848 1.231-2.518 1.231-.724 0-1.045.187-1.501.803-.643.883-.991.99-1.447.401-.402-.535-1.5-.214-1.5.428 0 .589-.482.937-.831.589-.16-.161-.884.027-1.929.535s-2.116.803-2.92.83c-.858.026-1.447.214-1.876.588-.348.321-1.232.99-1.956 1.499-1.125.776-1.447.883-1.956.669-.402-.188-.803-.188-1.286.027-.375.187-.911.321-1.179.321-.294 0-.536.187-.536.401 0 .241-.267.401-.696.401-.938 0-2.251.643-3.537 1.766-.67.562-1.232.857-1.5.75-.215-.081-.831.08-1.313.401-.509.321-1.126.562-1.367.562s-.509.187-.616.401c-.134.375-.214.375-.643-.026-.348-.321-.75-.402-1.367-.268-1.607.321-3 .348-4.447.107-1.206-.214-1.501-.16-2.17.294-.429.322-.911.562-1.072.562s-.536.134-.804.322c-.402.24-.75.24-1.608-.054-1.045-.348-1.152-.321-1.661.241-.321.348-.804.562-1.125.508-.322-.027-.75.027-.938.161-.536.321-1.045 0-1.206-.803-.08-.535.134-1.284.751-2.542 1.205-2.355 2.036-4.817 2.277-6.797.268-2.06 1.206-4.067 2.143-4.549.402-.214 1.072-.776 1.501-1.284.429-.509 1.313-1.552 1.956-2.302.911-1.043 2.411-3.88 2.438-4.495 0-.027.75-.455 1.634-.937.911-.481 2.278-1.498 3.028-2.301s1.983-1.793 2.733-2.221c.723-.428 1.608-1.07 1.929-1.445.322-.374.804-.669 1.099-.669.268 0 .804-.241 1.179-.535.964-.776 2.438-1.338 3.456-1.365.482 0 1.313-.16 1.822-.348 1.179-.428 8.976-.321 9.538.134M150.01 334.577c.456.348 2.358 2.301 4.261 4.362 1.929 2.034 4.367 4.602 5.439 5.673 1.045 1.097 1.929 2.06 1.929 2.167s.589.589 1.286 1.097c.696.509 1.473 1.205 1.741 1.526.456.615.456.642-.053.642-.295 0-.616-.134-.697-.268-.08-.16-1.098-.267-2.224-.294-1.125 0-2.304-.107-2.599-.214-.294-.134-.83-.107-1.152 0-.428.16-.911.107-1.473-.161-.483-.214-1.93-.508-3.269-.669-1.313-.16-3.483-.508-4.823-.802a104 104 0 0 0-4.743-.91c-1.366-.214-2.625-.616-3.081-.937-.402-.294-1.259-.669-1.849-.803-.616-.16-1.42-.535-1.795-.829-.375-.295-.937-.535-1.232-.535-.724 0-1.903-.75-1.903-1.204 0-.75 3.859-3.292 8.172-5.406.59-.267 1.313-.642 1.608-.803 1.688-.936 4.635-2.194 5.118-2.221.294 0 .911.268 1.339.589"/><path d="M176.911 51.094c0 .374.295.561.697.4.562-.213.455-.615-.161-.615-.295 0-.536.107-.536.215M206.786 58.88c-.241.428.455 1.633.991 1.633.482 0 .616-.268.482-1.07-.107-.697-1.125-1.098-1.473-.563M43.345 197.224c-.187.321.322.642.67.428.295-.187.107-.669-.268-.669-.134 0-.295.107-.402.241M43.48 201.398c0 .428.428.535.642.161.08-.134-.027-.295-.24-.402-.242-.08-.403 0-.403.241M44.872 209.399c.027.268.215.455.349.455.402-.027.321-.642-.08-.776-.242-.08-.349.053-.269.321M46.427 223.608c0 .455.133.669.348.589.16-.054.321-.321.321-.589s-.16-.535-.321-.615c-.215-.054-.349.16-.349.615M224.336 15.023c-.322.214-.322.267.08.428.59.214 1.34-.08 1.125-.428-.214-.322-.669-.348-1.205 0M14.408 135.973c-.187.321.054.802.429.802.134 0 .241-.24.241-.535 0-.562-.402-.722-.67-.267M3.637 224.732c.241.053.67.053.938 0 .241-.08.027-.134-.482-.134-.51 0-.724.054-.456.134M-.114 236.747c-.08.214-.027.535.134.695.429.429 1.125.054 1.125-.588 0-.643-1.018-.75-1.259-.107M6.826 236.64c.16.481.75.562.75.107a.423.423 0 0 0-.429-.428c-.241 0-.375.133-.321.321M204.374 397.166c-.107.161-.134.348-.053.428.214.188 1.259-.187 1.259-.481 0-.348-.991-.295-1.206.053M189.424 402.277c-.188.669-.027 1.017.482 1.017.348 0 .67-.562.67-1.231 0-.615-.992-.428-1.152.214M34.262 424.059c-.214.829-.08 1.044.51.829.508-.214.535-1.525.026-1.525-.214 0-.455.321-.536.696"/></g><defs><clipPath id="a"><path fill="#fff" d="M0 0h390v448H0z"/></clipPath></defs></svg>