<svg xmlns="http://www.w3.org/2000/svg" width="48" height="48" fill="none"><path fill="#ffa90a" fill-rule="evenodd" d="M25.872 41.825c-.07-.038-.014-.141.11-.356.21-.365.464-.622.606-1.006.081-.221.081-.412.146-.621.07-.22.193-.307.313-.49.349-.531.072-.607.73-.844.523-.186.238-.585.882-.693.399-.067.84-.277 1.238-.35.587-.108.336-.11.592-.186.213-.063.31.113.467.209.181.111.41.084.604.17.232.101 1.018 1.119 1.762 1.43.179.074.33.053.426.216a17.86 17.86 0 0 1-7.876 2.52m-1.587-38.51c-1.753 0-3.455.21-5.084.603-.012-.074-.015-.048.036-.133.01-.267.052-.502.021-.777-.044-.405-.11-.329-.34-.493.1-.131.202-.378.24-.538.09-.382-.02-.35-.257-.477h-.318c-.988.373-1.155.978-1.865 1.662-.2.193-.427.353-.63.545a9 9 0 0 0-1.084 1.265c-.309.434-.388.58-.531.7C7.656 9.166 3 16.187 3 24.28c0 7.237 3.722 13.617 9.384 17.385l.008.007c-.791.353-1.703.885-2.482 1.3-.902.481-.652.47-1.14.009-.723-.684-.809-.35-1.131-.064-1.001.888-1.956 1.803-2.964 2.696-.338.298-.71.573-1.04.87h.093c.198-.077 5.053-.998 5.293-1.037 1.573-.258-.109-1.365.778-1.797.722-.352 1.401-.722 2.108-1.102.704-.378.878-.533 1.116-.474a21.4 21.4 0 0 0 11.262 3.173c4.361 0 8.416-1.293 11.791-3.51a.33.33 0 0 1 .183.008c.57.212 2.004 2.231 3.62 2.724-.036-.062-1.362-1.394-1.54-1.577-.366-.372-1.4-1.651-1.437-1.682q.036-.05.076-.098c5.214-3.821 8.592-9.937 8.592-16.83a20.65 20.65 0 0 0-3.821-11.986c.023-.341.878-.956 1.222-2.677.11-.547-.253-.682-.613-.324-.146.146-.503.573-.58.77l-.07.085c-.024-.148-.028-.05.025-.138-.375-.483-.67.473-.956.596-.115.049-.166-.277-.432-.334-.138-.03-.218-.04-.273-.054a21.37 21.37 0 0 0-15.787-6.904m.175 3.522c-1.214 0-2.4.12-3.545.348l-.083.017q-.815.166-1.601.405c-.131.111.01.27.128.673.099.339-.046.53-.098.844-.043.263.08.38.187.6.303.62-.256 1.235-.159 1.537.116.36.821.178.421 1.225-.065.171-.275.46-.247.633.03.178.326.294.462.4.45.35.334 1 .689 1.293.172.143.464.208.567.392.133.237.116.42.331.657.165.183.38.272.488.5.12.252.16.415.344.644.722.904.652 1.53 1.067 1.864.2.161.439-.072.624-.186.788-.488 1.651-1.044 2.47-1.464 3.909-2.004 7.112-2.072 7.563-2.283.11-.052.88-.782 1.048-.93.35-.306.715-.615 1.102-.878.332-.226.343-.18.688-.307.165-.062.395-.322.517-.459l-.015-.017A17.87 17.87 0 0 0 24.46 6.837M10.898 13.02a17.3 17.3 0 0 0-4.226 11.337c0 6.601 3.706 12.35 9.18 15.336.21.034.386-.078.813-.316.567-.317 1.221-.597 1.713-1.01-1.6-2.182-3.573-2.807-5.048-4.141-.298-.27-.607-.378-.893-.625-.323-.276-.421-.53-.646-.868-.492-.736-.847-1.172-.975-2.094-.036-.262.102-.366.053-.717-.101-.721-.008-.265.145-.38.141-.107-.025-.61.215-.832.292-.27.174-.67.274-1.022.092-.328.284-.516.219-.883-.055-.305-.233-.76.001-1.042.36-.436.625.82 1.215.702.419-.084.429-.31.659-.603.218-.28.505-.513.737-.778.543-.619.588-1.604.128-2.282-.3-.442-1.114-1.097-1.54-1.492q-.794-.736-1.58-1.48c-.584-.553-1.099-.948-1.291-1.768-.27-1.149.094-2.811.462-3.953.034-.105.377-.944.385-1.089m5.631 27.024a17.93 17.93 0 0 0 8.686 1.818c.097-.054.085-.186.13-.505.219-1.572.385-4.7.423-6.243-.337.117-3.693 2.03-4.345 2.381-.461.248-.977.579-1.445.79.067.288 1.451 2.259 1.65 2.73-.05-.02-1.192-1.075-1.287-1.18.109.333.738 1.214.759 1.456-.307-.113-.98-.904-1.225-1.175l-1.078-1.3c-.104.023-2.083 1.098-2.268 1.228m18.5-1.593c3.537-2.577 6.07-6.416 6.913-10.842-.401.146-1.269.712-1.683.942-1.096.61-.54.392-2.142.457-.54.022-.676-.067-1.176.172-.856.41-1.717.884-2.583 1.302.39.005.846-.111 1.216-.073-.078.108-1.557.959-1.808 1.108-.545.324-.371.245-1.224.24-.352-.003-.285.004-.569.172-.119.071-.34.181-.414.287.005.022.78 1.37.874 1.546q.423.796.85 1.588c.376.699 1.34 2.538 1.745 3.102m7.017-11.444q.098-.637.15-1.288c-.36.144-1.297 1.007-1.327 1.393.287.053.892-.015 1.177-.105m.156-1.375q.03-.422.041-.849c-.169.184-.797.825-.843.988zm.045-1.15.002-.125c0-3.622-1.116-6.988-3.028-9.781-.17-.057-.668.332-.96.501-.262.152-.827.412-.995.617-.984 1.201-1.533.712-1.83 1.421-.267.638-1.052.904-1.348 1.096-.195.127-.223.282-.342.46-.156.235-.632.726-.7.9-.085.221-.07.378-.193.614-.246.473-.75.956-1.184 1.257-.533.37-.276.538-.595 1.01-.283.418-.708.543-.872.767-.117.16-.128.361-.255.549-.508.75-.99.748-1.189 1.251-.126.32-.184.251-.331.473-.152.228-.061.45-.135.664-.056.162-.267.27-.364.438-.095.165-.155.35-.267.537-.84 1.409-1.001.58.61 1.71a14 14 0 0 1 2.08 1.818c.13.137.862.981.917 1.014.195-.083.734-.498.942-.646.253-.178.221-.162.377-.426.117-.197.147-.342.358-.443.697-.334 1.467-.747 2.17-1.039l.022.022-.531.671c-.08.053-.05.005-.073.098l.11-.063c.647-.282 1.452-.793 2.095-1.141.594-.321.541-.19.844-.796q.266-.536.526-1.074c.312-.64.24-.474.863-.78l2.216-1.04c.184-.082.963-.376 1.06-.534m-22.73 13.284c-.213-.295-2.11-3.033-2.201-3.292-.09-.251-.13-.63-.197-.908-.302-1.255-1.212-2.378-.762-3.423.317-.737.964-.371 1.534-.196 2.328.716 3.39.962 5.705.626.423-.061.469-.012.696.314.509.728.833 1.334 1.098 2.204q.134.44.21.893c.088.529.159.48-.284.719-.36.194-5.535 2.984-5.799 3.063" clip-rule="evenodd"/></svg>