<svg xmlns="http://www.w3.org/2000/svg" width="512" height="512" fill="none"><path fill="#a53131" fill-rule="evenodd" d="M274.502 458.987c-.797-.426-.151-1.607 1.248-4.054 2.379-4.154 5.269-7.079 6.879-11.442.927-2.523.923-4.688 1.663-7.075.781-2.511 2.184-3.495 3.542-5.568 3.96-6.051.825-6.923 8.298-9.611 5.92-2.125 2.688-6.661 9.994-7.89 4.526-.76 9.539-3.154 14.044-3.986 6.668-1.229 3.818-1.261 6.721-2.117 2.419-.715 3.517 1.286 5.298 2.378 2.061 1.27 4.647.957 6.851 1.929 2.63 1.161 11.559 12.74 19.996 16.275 2.029.852 3.753.619 4.834 2.467-26.396 15.999-56.792 26.171-89.368 28.694M256.498 20.659a245 245 0 0 0-57.683 6.866c-.13-.848-.163-.555.407-1.519.118-3.041.589-5.713.248-8.843-.504-4.604-1.257-3.74-3.859-5.608 1.139-1.495 2.289-4.303 2.716-6.123 1.017-4.351-.228-3.982-2.911-5.432h-3.615c-11.201 4.25-13.1 11.129-21.154 18.915-2.273 2.198-4.843 4.022-7.152 6.207-4.44 4.195-8.762 9.43-12.292 14.4-3.504 4.941-4.407 6.608-6.029 7.962C67.824 87.256 15 167.175 15 259.29c0 82.37 42.233 154.993 106.47 197.877l.089.081c-8.973 4.013-19.321 10.076-28.156 14.801-10.23 5.472-7.396 5.335-12.926.096-8.209-7.782-9.189-3.985-12.844-.731-11.356 10.112-22.188 20.53-33.633 30.687-3.826 3.398-8.059 6.524-11.791 9.899h1.053c2.248-.868 57.325-11.35 60.05-11.796 17.852-2.933-1.229-15.532 8.83-20.454 8.189-4.005 15.898-8.22 23.912-12.543 7.989-4.307 9.969-6.062 12.669-5.399 37.065 22.88 80.855 36.118 127.775 36.118 49.486 0 95.488-14.72 133.788-39.951.74-.153 1.444-.145 2.07.088 6.469 2.423 22.736 25.4 41.073 31.012-.41-.703-15.454-15.873-17.479-17.946-4.143-4.239-15.873-18.799-16.292-19.149.268-.389.553-.759.858-1.12C459.675 407.369 498 337.751 498 259.29c0-50.73-16.036-97.757-43.355-136.423.261-3.877 9.962-10.875 13.869-30.47 1.24-6.227-2.875-7.761-6.953-3.68-1.663 1.66-5.712 6.513-6.582 8.763l-.793.96c-.277-1.68-.321-.57.284-1.567-4.261-5.492-7.599 5.38-10.847 6.782-1.305.559-1.887-3.146-4.908-3.805-1.565-.345-2.464-.458-3.094-.61-44.188-48.26-108.072-78.581-179.123-78.581m1.988 40.084a205 205 0 0 0-40.224 3.965l-.939.193a201 201 0 0 0-18.166 4.608c-1.488 1.266.113 3.086 1.451 7.666 1.126 3.853-.516 6.038-1.106 9.606-.492 2.985.903 4.331 2.119 6.83 3.435 7.043-2.899 14.054-1.802 17.497 1.31 4.094 9.315 2.025 4.778 13.933-.744 1.953-3.127 5.235-2.802 7.208.342 2.033 3.696 3.35 5.237 4.552 5.099 3.981 3.794 11.378 7.815 14.716 1.956 1.627 5.269 2.371 6.44 4.464 1.505 2.696 1.31 4.773 3.753 7.485 1.874 2.073 4.306 3.085 5.538 5.685 1.354 2.864 1.817 4.72 3.899 7.332 8.197 10.293 7.4 17.416 12.112 21.217 2.273 1.832 4.977-.82 7.075-2.121 8.937-5.553 18.736-11.876 28.034-16.657 44.343-22.809 80.688-23.592 85.799-25.987 1.26-.59 9.978-8.907 11.893-10.582 3.98-3.491 8.119-7.003 12.502-9.996 3.765-2.571 3.899-2.053 7.811-3.503 1.874-.695 4.485-3.664 5.863-5.219-.057-.064-.114-.133-.171-.197-36.804-38.594-89.006-62.695-146.909-62.695m-153.874 70.393c-29.904 34.785-47.953 79.826-47.953 129.042 0 75.134 42.054 140.557 104.168 174.559 2.375.389 4.375-.896 9.214-3.604 6.432-3.6 13.86-6.79 19.435-11.503-18.159-24.829-40.537-31.944-57.272-47.126-3.379-3.062-6.884-4.303-10.137-7.108-3.655-3.15-4.773-6.046-7.327-9.883-5.574-8.373-9.607-13.343-11.055-23.841-.41-2.977 1.159-4.154.598-8.156-1.151-8.208-.098-3.013 1.643-4.327 1.602-1.209-.285-6.938 2.443-9.469 3.31-3.07 1.972-7.614 3.103-11.631 1.049-3.729 3.232-5.874 2.484-10.052-.622-3.464-2.639-8.638.016-11.86 4.082-4.958 7.087 9.345 13.787 7.995 4.749-.956 4.863-3.536 7.47-6.87 2.484-3.178 5.737-5.838 8.371-8.851 6.156-7.043 6.664-18.256 1.448-25.974-3.399-5.03-12.633-12.483-17.467-16.983a2485 2485 0 0 1-17.939-16.854c-6.619-6.284-12.458-10.787-14.641-20.12-3.058-13.074 1.069-31.993 5.245-44.994.382-1.197 4.273-10.747 4.366-12.39m63.892 307.59c27.091 13.359 57.646 20.888 89.982 20.888 2.871 0 5.721-.072 8.563-.193 1.11-.619.968-2.113 1.472-5.745 2.488-17.895 4.375-53.491 4.81-71.068-3.826 1.334-41.907 23.117-49.303 27.111-5.233 2.824-11.088 6.585-16.394 8.987.764 3.283 16.463 25.709 18.711 31.081-.565-.225-13.515-12.246-14.596-13.443 1.24 3.792 8.375 13.82 8.615 16.573-3.484-1.286-11.12-10.286-13.901-13.375l-12.234-14.793c-1.175.261-23.627 12.499-25.725 13.977m209.894-18.123c40.138-29.341 68.868-73.041 78.439-123.418-4.55 1.663-14.393 8.103-19.098 10.727-12.425 6.934-6.127 4.459-24.293 5.199-6.124.253-7.673-.764-13.353 1.964-9.705 4.665-19.475 10.061-29.299 14.813 4.416.061 9.6-1.261 13.796-.831-.882 1.229-17.675 10.916-20.517 12.611-6.184 3.688-4.212 2.796-13.889 2.728-3.996-.024-3.236.048-6.452 1.969-1.35.807-3.859 2.057-4.696 3.262.053.253 8.851 15.605 9.912 17.601 3.2 6.035 6.412 12.065 9.645 18.076 4.269 7.947 15.202 28.883 19.805 35.299m79.626-130.264a197 197 0 0 0 1.691-14.657c-4.078 1.636-14.71 11.455-15.051 15.854 3.256.607 10.128-.177 13.36-1.197m1.761-15.653c.231-3.198.394-6.416.471-9.658-1.919 2.089-9.05 9.381-9.571 11.237zm.516-13.085c.004-.475.016-.949.016-1.423 0-41.229-12.661-79.537-34.353-111.336-1.927-.651-7.582 3.784-10.888 5.709-2.972 1.731-9.388 4.688-11.287 7.014-11.165 13.676-17.402 8.104-20.768 16.183-3.026 7.256-11.934 10.282-15.292 12.471-2.216 1.447-2.529 3.214-3.879 5.243-1.773 2.672-7.172 8.256-7.937 10.245-.972 2.511-.801 4.299-2.195 6.979-2.798 5.387-8.514 10.888-13.438 14.315-6.046 4.21-3.131 6.119-6.754 11.494-3.208 4.757-8.034 6.175-9.888 8.722-1.325 1.82-1.451 4.114-2.891 6.248-5.773 8.549-11.246 8.517-13.494 14.246-1.428 3.64-2.086 2.857-3.757 5.38-1.72 2.599-.696 5.127-1.533 7.561-.634 1.848-3.029 3.066-4.127 4.982-1.082 1.884-1.765 3.998-3.025 6.119-9.535 16.03-11.364 6.601 6.912 19.457 8.656 6.087 16.329 13.074 23.594 20.695 1.484 1.559 9.795 11.169 10.413 11.539 2.212-.944 8.331-5.665 10.693-7.344 2.863-2.037 2.505-1.852 4.278-4.85 1.329-2.245 1.659-3.901 4.053-5.05 7.917-3.796 16.646-8.497 24.632-11.82l.248.253-6.034 7.634c-.903.603-.553.056-.826 1.109l1.253-.715c7.339-3.21 16.467-9.02 23.765-12.985 6.741-3.656 6.143-2.17 9.575-9.06 2.021-4.05 4.001-8.152 5.977-12.226 3.537-7.288 2.716-5.391 9.787-8.871l25.143-11.836c2.082-.944 10.921-4.283 12.027-6.082M202.405 412.8c-2.419-3.354-23.948-34.523-24.981-37.468-1.004-2.865-1.467-7.168-2.228-10.337-3.427-14.287-13.751-27.067-8.652-38.964 3.598-8.388 10.941-4.226 17.406-2.229 26.416 8.151 38.472 10.944 64.737 7.123 4.794-.695 5.314-.133 7.892 3.576 5.774 8.284 9.453 15.186 12.458 25.082a81 81 0 0 1 2.383 10.164c1 6.023 1.801 5.464-3.22 8.184-4.091 2.218-62.806 33.97-65.795 34.869" clip-rule="evenodd"/></svg>