<svg xmlns="http://www.w3.org/2000/svg" width="64" height="64" fill="none"><path fill="url(#a)" fill-rule="evenodd" d="M34.495 55.767c-.093-.05-.017-.189.147-.475.28-.487.62-.83.808-1.34.11-.296.109-.55.196-.83.092-.294.256-.409.416-.652.465-.709.097-.81.975-1.126.696-.249.316-.78 1.175-.924.531-.089 1.12-.37 1.65-.467.784-.144.449-.148.79-.248.284-.084.413.15.622.279.243.148.547.112.806.226.309.136 1.358 1.492 2.35 1.906.238.1.44.073.567.29a23.8 23.8 0 0 1-10.502 3.36M32.38 4.42c-2.337 0-4.606.28-6.779.804-.015-.099-.02-.065.048-.178.014-.356.07-.669.029-1.035-.06-.54-.148-.439-.454-.657.134-.176.27-.505.32-.718.12-.51-.027-.466-.342-.636h-.425c-1.317.498-1.54 1.304-2.486 2.216-.267.257-.57.47-.84.727a11.8 11.8 0 0 0-1.445 1.687c-.412.578-.518.774-.709.932C10.207 12.222 4 21.583 4 32.374c0 9.649 4.963 18.156 12.512 23.18l.01.009c-1.054.47-2.27 1.18-3.308 1.733-1.203.642-.87.626-1.52.012-.964-.912-1.08-.467-1.509-.086-1.334 1.185-2.607 2.405-3.952 3.595-.45.398-.947.764-1.386 1.16h.124c.264-.102 6.736-1.33 7.057-1.382 2.098-.344-.145-1.82 1.037-2.396.963-.47 1.869-.963 2.81-1.47.94-.504 1.172-.71 1.49-.632a28.57 28.57 0 0 0 15.015 4.23 28.56 28.56 0 0 0 15.722-4.68.44.44 0 0 1 .243.011c.76.284 2.672 2.976 4.827 3.633-.049-.082-1.816-1.86-2.054-2.102-.487-.497-1.866-2.202-1.915-2.243q.048-.069.1-.132c6.953-5.094 11.457-13.25 11.457-22.44a27.53 27.53 0 0 0-5.095-15.981c.03-.454 1.17-1.274 1.63-3.57.145-.729-.338-.909-.817-.43-.196.194-.672.762-.774 1.026l-.093.112c-.033-.196-.038-.066.033-.183-.5-.644-.893.63-1.274.794-.154.066-.222-.368-.577-.445-.184-.04-.29-.054-.364-.072-5.193-5.653-12.7-9.205-21.05-9.205m.233 4.695c-1.619 0-3.2.16-4.727.465l-.11.023q-1.086.221-2.135.54c-.175.148.014.36.17.897.133.452-.06.708-.13 1.126-.057.35.107.507.25.8.403.825-.341 1.646-.212 2.05.154.479 1.095.236.561 1.632-.087.228-.367.613-.329.844.04.238.435.392.616.533.599.466.445 1.333.918 1.724.23.19.62.278.757.523.177.316.154.559.44.877.221.242.507.361.652.666.159.335.213.553.458.858.963 1.206.87 2.04 1.423 2.486.267.215.585-.096.832-.249 1.05-.65 2.201-1.39 3.294-1.95 5.21-2.673 9.482-2.764 10.083-3.045.148-.07 1.172-1.043 1.397-1.24.468-.409.954-.82 1.47-1.17.442-.302.458-.241.917-.41.22-.082.527-.43.69-.612l-.02-.023c-4.326-4.521-10.46-7.345-17.265-7.345m-18.082 8.246c-3.514 4.075-5.635 9.351-5.635 15.117 0 8.801 4.942 16.465 12.24 20.448.28.045.515-.105 1.084-.422.756-.422 1.628-.796 2.284-1.348-2.134-2.908-4.764-3.742-6.73-5.52-.398-.359-.81-.504-1.192-.833-.43-.369-.561-.708-.861-1.158-.655-.98-1.13-1.563-1.3-2.792-.047-.35.137-.487.071-.956-.135-.961-.011-.353.193-.507.188-.141-.033-.812.287-1.109.39-.36.232-.892.365-1.362.123-.437.38-.688.292-1.178-.073-.406-.31-1.012.002-1.39.48-.58.832 1.095 1.62.937.558-.112.571-.414.878-.804.292-.373.674-.684.983-1.037.724-.825.784-2.139.17-3.043-.399-.59-1.484-1.462-2.052-1.99q-1.06-.981-2.108-1.974c-.778-.736-1.464-1.263-1.72-2.357-.36-1.53.125-3.747.616-5.27.044-.14.502-1.26.513-1.452m7.508 36.032a23.9 23.9 0 0 0 11.58 2.424c.13-.072.114-.247.173-.673.293-2.096.515-6.266.566-8.325-.45.156-4.925 2.708-5.794 3.176-.615.331-1.303.772-1.927 1.053.09.384 1.935 3.011 2.2 3.64-.067-.026-1.589-1.434-1.716-1.574.146.444.984 1.619 1.012 1.941-.41-.15-1.306-1.205-1.633-1.566l-1.438-1.733c-.138.03-2.777 1.464-3.023 1.637m24.666-2.123c4.717-3.437 8.093-8.556 9.217-14.457-.534.194-1.691.949-2.244 1.256-1.46.813-.72.523-2.855.61-.72.029-.901-.09-1.569.23-1.14.546-2.288 1.178-3.443 1.735.519.007 1.128-.148 1.621-.098-.103.144-2.077 1.279-2.41 1.477-.727.433-.496.328-1.633.32-.47-.003-.38.006-.758.23-.159.095-.454.242-.552.383.006.03 1.04 1.828 1.165 2.062q.563 1.06 1.133 2.117c.502.931 1.787 3.383 2.328 4.135m9.357-15.26q.13-.848.199-1.716c-.48.191-1.729 1.342-1.77 1.857.384.071 1.191-.02 1.57-.14m.207-1.833q.041-.561.055-1.131c-.225.245-1.063 1.099-1.124 1.316zm.06-1.533.002-.166a23 23 0 0 0-4.037-13.042c-.226-.077-.89.443-1.28.668-.348.203-1.102.55-1.326.822-1.312 1.602-2.044.95-2.44 1.896-.356.85-1.402 1.204-1.797 1.46-.26.17-.297.377-.456.615-.208.313-.843.967-.933 1.2-.114.294-.094.503-.258.817-.328.631-1 1.276-1.579 1.677-.71.493-.368.717-.793 1.347-.377.557-.945.723-1.162 1.021-.156.214-.171.482-.34.732-.679 1.002-1.322.998-1.586 1.67-.168.425-.245.334-.441.63-.203.304-.082.6-.18.885-.075.217-.357.36-.486.584-.127.22-.207.468-.355.716-1.12 1.878-1.335.774.812 2.28 1.017.713 1.92 1.531 2.773 2.424.174.182 1.15 1.308 1.224 1.352.26-.111.979-.664 1.256-.86.336-.24.294-.218.503-.569.156-.263.195-.457.476-.591.93-.445 1.956-.996 2.895-1.385l.029.03-.71.894c-.105.07-.064.006-.096.13l.147-.084c.862-.376 1.935-1.057 2.793-1.521.792-.428.722-.254 1.125-1.061q.355-.714.702-1.433c.416-.853.32-.631 1.15-1.039l2.955-1.386c.245-.11 1.284-.502 1.414-.713M26.024 50.356c-.284-.393-2.814-4.044-2.936-4.389-.118-.336-.172-.84-.262-1.211-.402-1.673-1.616-3.17-1.016-4.564.422-.983 1.285-.495 2.045-.261 3.104.955 4.521 1.282 7.608.834.563-.081.624-.016.927.419.679.97 1.111 1.779 1.464 2.938.119.39.213.79.28 1.19.118.706.212.64-.378.96-.481.26-7.38 3.979-7.732 4.084" clip-rule="evenodd"/><defs><linearGradient id="a" x1="32.38" x2="32.38" y1="2" y2="61.977" gradientUnits="userSpaceOnUse"><stop stop-color="#ffa90a"/><stop offset=".5" stop-color="#f9bd4d"/><stop offset="1" stop-color="#ffa90a"/></linearGradient></defs></svg>