<svg width="512" height="512" viewBox="0 0 512 512" fill="none" xmlns="http://www.w3.org/2000/svg">
<path d="M105.353 81.793C111.032 64.8204 155.043 21.289 176.339 1.64483C184.857 -4.95561 181.465 9.89537 178.704 18.1459C188.169 17.203 185.014 29.5395 182.254 35.8257C191.718 35.8257 183.831 53.1125 178.704 61.756C190.062 61.756 181.859 75.114 176.338 81.793C185.803 86.5076 184.225 97.9012 182.254 103.009C193.611 109.609 186.986 123.046 182.254 128.939C195.504 135.539 187.775 148.976 182.254 154.869C194.558 155.812 196.056 167.049 195.268 172.549C205.679 171.606 207.493 181.585 207.099 186.693C219.403 186.693 218.535 196.908 216.564 202.015C226.975 202.958 224.845 209.48 222.479 212.623C232.89 212.623 228.394 224.41 224.845 230.303C233.127 219.695 276.902 193.765 308.845 183.157C340.789 172.549 356.169 165.477 363.268 159.584C370.366 153.691 370.366 144.261 389.296 134.832C404.439 127.289 437.408 102.616 452 91.2222C449.634 119.51 436.62 138.368 424.789 152.512C412.958 166.656 389.296 171.37 389.296 171.37C389.296 171.37 394.722 172.58 392.356 177.295C389.99 182.009 369.989 193.036 369.989 193.036C369.989 193.036 375.905 197.084 369.989 202.977C364.074 208.871 340.789 225.588 340.789 225.588C340.789 225.588 348.213 229.745 343.481 234.46C338.749 239.174 324.225 250.34 324.225 256.233C324.225 262.126 298.197 284.521 293.465 290.414C288.732 296.307 292.282 296.307 289.916 303.379C287.549 310.451 262.704 331.667 272.169 334.024C281.634 336.381 299.38 346.989 313.578 364.669C327.775 382.349 330.141 388.242 341.972 410.636C351.437 428.552 392.451 485.677 411.775 512C403.493 504.928 378.648 487.248 371.549 486.07C364.451 484.891 362.085 478.998 354.986 471.926C347.887 464.854 327.775 440.102 311.211 441.281C294.648 442.46 289.916 444.817 278.085 453.068C268.62 459.668 253.634 484.891 247.324 496.678C252.056 471.926 254.423 408.279 254.423 394.135C254.423 379.991 241.409 368.205 233.127 364.669C224.845 361.133 200 376.455 177.521 368.205C155.042 359.954 150.31 362.312 146.761 362.312C143.211 362.312 139.662 370.562 144.395 378.813C149.127 387.063 147.944 407.1 150.31 412.993C154.096 422.423 189.747 475.069 207.099 500.214L195.268 493.142L197.634 500.214C184.62 478.998 131.38 440.102 113.634 431.852C95.8875 423.601 81.6903 412.993 74.5918 397.671C67.4932 382.349 72.2256 375.277 74.5918 362.312C76.4847 351.939 81.6903 324.988 84.0565 312.808C87.6058 332.845 105.353 326.952 105.353 322.237C105.353 317.523 116 305.736 119.549 301.022C123.099 296.307 126.648 286.878 125.465 280.985C124.282 275.092 111.268 268.02 105.353 262.126C99.4376 256.233 67.4936 232.66 62.7612 222.052C58.0288 211.444 63.9443 187.871 67.4936 174.906C71.0429 161.941 86.4232 130.118 91.1555 120.688C95.8879 111.259 98.2541 103.009 105.353 81.793Z" fill="#B33939"/>
</svg>
